<svg enable-background="new 0 0 1024 768" height="768" viewBox="0 0 1024 768" width="1024" xmlns="http://www.w3.org/2000/svg"><path d="m1024 368.141s-89.401-1.158-111.75-6.954c-22.348-5.796-172.696-74.178-258.03-83.449-85.333-9.274-245.842-10.433-316.953-40.567-71.112-30.134-229.588-85.768-272.254-90.403-42.667-4.634-65.012 0-65.012 0v-146.616l1024.935.581z" fill="#5896be"/><path d="m0 0h1024v30.868s-81.273 1.159-113.779 7.244c-32.507 6.086-154.414 66.355-231.619 79.104s-186.92 16.226-253.967 38.248c-67.047 22.021-128 22.02-164.571 19.702-36.572-2.317-93.461-2.644-138.159.997-44.699 3.64-121.905 24.502-121.905 24.502z" fill="#2d6398"/><path d="m0 0h585.143s-67.045 28.185-91.428 31.661c-24.382 3.478-83.302-2.742-113.778 1.894-30.477 4.636-91.677 7.772-121.905 11.65-40.286 5.168-116.96 29.126-153.532 31.445s-104.5-18-104.5-18z" fill="#10284d"/><path d="m1024 222.105s-62.477-43.462-109.714-53.894c-47.238-10.432-96-3.477-124.953-10.432-28.952-6.954-128-32.162-188.952-38.247-60.952-6.084-129.523 6.085-150.856 4.346-21.335-1.737-92.953-18.253-129.525-13.038-36.571 5.216-112.761 20.863-143.238 21.732-30.476.868-176.762-2.608-176.762-2.608v638.036l1019.936-.58z" fill="#65aaa0"/><path d="m0 322.939s60.953 2.173 72.382 3.476c11.428 1.304 72.38 19.993 105.142 21.297s131.81-12.084 170.667-9.302c38.857 2.783 133.336 29.15 208.509 33.786s184.888 31.293 235.682 55.632c50.796 24.34 229.587 91.563 229.587 91.563l2.031 248.609h-1024z" fill="#9db684"/><path d="m1024 194.868s-166.607-3.478-227.56 22.021-99.555 53.314-148.315 62.587-111.747 3.476-152.382 15.067c-40.636 11.591-105.652 44.042-138.159 52.156-32.507 8.113-138.158 30.135-184.889 60.269-46.73 30.133-173.006 52.151-172.695 50.995.312-1.156 0 310.037 0 310.037h1024z" fill="#c5d5b8"/><path d="m.382 387.484s56.313-14.129 86.79-12.971c53.938-6.373 106.421 40.576 182.932 40.576 47.998 0 166.492-46.949 263.987-43.498 62.241 2.203 98.995 23.999 154.492 17.999 92.781-10.031 145.492-51.03 215.53-51.006 117.84 3.478 119.887 10.431 119.887 10.431v418.985h-1024z" fill="#f7b1ae"/><path d="m1024 768h-1024v-45.201s209.702-92.852 256.762-95.619c71-4.175 146.667-23.47 218.285-24.339 52.534-.639 111.531 9.353 174.715-1.737 28.412-4.987 80.64-38.681 127.907-45.049 42.977-5.79 91.611-4.89 142.497-10.555 49.15-5.473 79.666-21.761 103.834-21.761z" fill="#b84f2e"/><path d="m0 768h1024v-45.201s-41.905-.87-66.286-6.954c-24.381-6.085-101.854-27.417-126.095-30.425-35.047-4.346-82.273-4.187-129.333-6.954-71-4.175-137.199-41.251-175.145-47.809-24.131-4.171-94.756 5.47-160.642-8.157-38.679-8-77.05-36.964-136-51-39.594-9.428-82.532-4.021-120-9-57.123-7.591-102.395-22.949-110.499-23.115z" fill="#a2332c"/><path d="m.762 768h1023.238v-45.201s-41.905-.87-66.286-6.954c-24.381-6.085-92.146-20.671-116.952-20.861-44.261-.004-243.476 46.94-283.095 46.07-39.619-.868-150.833-19.124-187.405-20.86-36.572-1.739-227.134 27.755-271.227 26.077-34.285-1.305-73.898-7.39-97.518-7.823z" fill="#89262b"/></svg>