<?xml version="1.0" encoding="UTF-8" standalone="no"?><!DOCTYPE svg PUBLIC "-//W3C//DTD SVG 1.1//EN" "http://www.w3.org/Graphics/SVG/1.1/DTD/svg11.dtd"><svg width="100%" height="100%" viewBox="0 0 4590 3258" version="1.1" xmlns="http://www.w3.org/2000/svg" xmlns:xlink="http://www.w3.org/1999/xlink" xml:space="preserve" xmlns:serif="http://www.serif.com/" style="fill-rule:evenodd;clip-rule:evenodd;stroke-linecap:round;stroke-linejoin:round;stroke-miterlimit:15;"><rect id="Artboard1" x="0" y="-0" width="4589.83" height="3257.15" style="fill:none;"/><path d="M2489.22,878.981l-0.005,0.012c-1.775,-1.757 -3.451,-3.915 -4.944,-6.557c-0.179,-0.316 -0.356,-0.651 -0.532,-1.005c-0.858,-0.107 -1.749,-0.256 -2.661,-0.458c-6.349,-0.726 -14.622,-3.788 -20.275,-13.793c-10.37,-18.303 -13.681,-97.539 -28.906,-137.206l-96.154,-126.173c-1.861,-18.049 12.374,-21.54 12.374,-21.54l-35.249,-30.133l2.696,-0.383c0.071,-0.059 0.157,-0.098 0.252,-0.112l29.436,-4.178c-2.011,-1.459 -37.908,-27.533 -37.205,-29.68c0.091,-0.281 0.932,-0.248 2.418,0.063c-0.026,-0.08 -0.032,-0.165 -0.015,-0.25c0.036,-0.182 0.17,-0.33 0.349,-0.383c0,0 103.868,-30.859 195.879,-31.462c73.557,-0.49 181.53,19.959 186.966,20.998c4.539,-3.254 95.689,-68.223 174.17,-94.226c90.591,-30.005 176.282,-20.97 180.453,-20.506c3.314,-1.776 64.688,-34.077 139.998,-30.825c67.94,2.948 117.104,22.037 140.943,33.358c4.337,-2.987 66.207,-45.578 80.279,-54.471c56.757,-35.893 146.31,-58.887 146.31,-58.887c0.072,-0.018 0.145,-0.02 0.215,-0.008c1.246,-0.333 1.916,-0.506 1.916,-0.506l-10.434,24.65c17.374,-5.443 28.879,-8.396 28.879,-8.396l-5.854,13.829l2.488,-1.237c0.168,-0.084 0.369,-0.067 0.521,0.043c0.067,0.048 0.119,0.111 0.154,0.182l1.564,-0.778l-4.285,27.555l22.721,-11.299l-2.941,18.94l16.545,-10.931c0.173,-0.115 0.398,-0.111 0.568,0.008c0.131,0.092 0.208,0.239 0.212,0.393l1.502,-0.992c-0,-0 -3.504,13.884 -7.703,33.539l26.149,-17.276c-0,-0 -19.721,78.111 -21.666,126.072c-1.843,45.621 9.876,130.383 9.876,130.383c0,-0 72.467,63.683 97.401,165.581c22.262,90.919 2.56,176.8 2.56,176.8c0,-0 -7.492,-12.384 -17.589,-27.752c-1.331,8.078 -2.371,12.607 -2.371,12.607c-0.045,0.199 -0.208,0.35 -0.41,0.382c-0.203,0.033 -0.405,-0.061 -0.51,-0.235c-0,-0 -27.275,-45.09 -47.841,-69.912l0.001,-0l-0.007,-0.007c-3.078,-3.716 -6.009,-6.981 -8.675,-9.571l8.675,9.571l0.006,0.007c-4.382,9.187 38.779,95.779 30.243,176.034c-2.521,23.743 -9.784,45.105 -18.913,63.539c1.618,1.902 3.189,3.846 4.712,5.829c3.561,-6.2 7.77,-12.16 12.363,-16.992c8.043,-8.462 17.372,-13.356 26.408,-11.976c9.149,1.395 16.25,8.022 20.939,17.455c6.23,12.534 8.205,30.074 6.217,43.644c-0,0.001 -0,0.002 -0,0.002c-1.532,10.423 -13.336,51.659 -18.094,79.059c-1.16,6.679 -1.901,12.489 -1.897,16.714c0.002,1.708 -0.09,3.027 0.35,3.752c0.323,0.528 1.028,0.949 1.869,1.49c1.481,0.954 3.376,1.915 5.577,2.915c7.343,3.34 17.8,6.967 28.441,11.243c11.14,4.478 22.455,9.67 30.921,15.864c6.278,4.593 11.031,9.792 13.465,15.536l0.001,0.003c4.632,10.926 8.125,37.128 2.697,59.545c-3.819,15.774 -12.036,29.573 -26.461,35.824c-21.046,9.126 -28.415,16.656 -49.969,69.326c-4.897,11.969 -6.22,25.98 -6.79,43.647l-1.183,54.956l-0.03,-0.001l-0.041,8.481l-0.004,0.001c-35.157,9.55 0,0 0,0c87.773,-23.843 184.456,-27.537 287.846,2.629l-0,-0c106.959,31.199 177.87,81.42 224.467,137.943c108.856,132.042 85.008,298.868 76.226,340.862c-1.384,6.622 -2.523,10.408 -2.748,10.891c-1.967,4.219 -5.876,3.026 -6.708,2.7c-1.016,-0.4 -2.863,-1.318 -3.266,-4.121c-0.03,-0.215 -0.048,-0.431 -0.051,-0.648c-0,0 -0.892,-58.174 -23.562,-96.419c-0,-0.001 -0.001,-0.002 -0.001,-0.002c-10.892,-18.395 -29.987,-39.454 -46.808,-56.576c1.947,4.041 3.699,8.027 5.117,11.764c0,0.001 0,0.001 0.001,0.002c8.147,21.491 22.29,67.278 22.29,67.278c0.714,2.311 -0.266,4.807 -2.366,6.025c-2.099,1.219 -4.766,0.84 -6.439,-0.914c0,0 -28.917,-30.374 -59.419,-45.787c-21.403,-10.813 -57.971,-17.886 -78.076,-21.168c10.811,12.17 28.016,32.167 37.96,46.96c5.779,8.577 9.811,17.41 12.686,25.629c0,0.001 0.001,0.003 0.001,0.005c7.168,20.558 6.899,37.399 6.899,37.399c-0.028,2.062 -1.276,3.912 -3.183,4.72c-1.907,0.808 -4.114,0.421 -5.628,-0.987c-0,-0 -39.692,-37.16 -85.072,-22.456c-0,-0 -0,-0 -0.001,-0c-30.109,9.752 -54.34,22.557 -74.325,37.605c-0.073,0.055 -0.147,0.108 -0.222,0.159c-40.142,30.307 -62.839,69.827 -80.537,112.312c-18.108,43.468 -31.018,90.03 -51.32,133.4c-0.04,0.084 -0.081,0.166 -0.124,0.247c-22.109,47.176 -52.876,90.588 -108.036,122.459c-0.001,0 -0.002,0.001 -0.002,0.001c-40.345,23.285 -80.142,37.037 -117.563,44.336c4.096,26.99 6.075,54.161 4.56,80.4c24.011,61.413 35.178,116.447 19.508,162.033l-38.844,55.607c19.261,-16.427 31.783,-35.059 38.844,-55.607l0.002,-0.002c4.224,11.428 8.593,24.742 12.08,38.741c6.716,26.963 10.06,56.424 3.326,80.105c0.738,0.985 2.156,2.918 3.104,4.432c0.043,0.064 0.085,0.128 0.125,0.194c7.851,12.749 23.239,36.694 29.883,58.299c4.984,16.208 4.774,31.181 -4.515,40.586c-0,0 -0,0 -0.001,0.001c-3.287,3.326 -9.658,6.18 -18.576,8.096c-11.662,2.506 -28.071,3.768 -46.913,4.062c-57.714,0.898 -138.592,-7.174 -173.894,-14.352c-9.908,-2.015 -16.531,-4.247 -18.837,-5.965c-0,-0 -0.001,-0.001 -0.001,-0.001c-5.997,-4.47 -7.684,-12.602 -6.58,-21.909c1.265,-10.664 6.04,-22.973 6.655,-29.575l0.001,-0.01c-1.212,-0.532 -2.671,-1.355 -4.3,-2.546c-4.797,-3.509 -12.648,-10.581 -22.012,-19.435c-15.979,-15.109 -36.51,-35.496 -53.69,-51.721c-0.76,-0.202 -1.511,-0.408 -2.252,-0.617c-13.603,-3.843 -24.093,-9.076 -30.326,-15.412c-25.133,-25.53 -76.086,-91.282 -118.048,-134.003c-17.345,-17.659 -32.98,-31.381 -44.496,-36.078c-0,-0 -0.001,-0.001 -0.001,-0.001c-4.755,-1.941 -7.958,-2.652 -10.274,-1.233c-1.63,0.999 -2.549,2.918 -3.399,5.324c-1.222,3.459 -2.01,7.823 -2.736,12.855c-3.764,26.097 -5.622,68.377 -40.22,101.638c-16.585,15.943 -40.756,29.894 -76.503,38.849l-46.515,7.936c17.361,-1.795 32.791,-4.497 46.515,-7.936l0.009,-0.002c-17.508,20.742 -35.83,43.149 -47.51,55.836c-4.367,4.744 -7.899,8.205 -10.207,9.928c-0.718,0.536 -1.397,0.95 -2.022,1.264c0.884,6.58 6.128,18.685 7.809,29.281c1.468,9.261 0.097,17.451 -5.726,22.143c-2.239,1.807 -8.768,4.294 -18.585,6.691c-34.992,8.542 -115.49,19.743 -173.195,21.081c-18.839,0.437 -35.285,-0.189 -47.036,-2.241c-7.127,-1.244 -12.677,-3.141 -16.371,-5.466l0,-0c19.613,-11.041 31.595,-27.842 36.391,-49.704l-36.391,49.704c-16.269,9.158 -37.795,14.351 -64.828,15.176c-0.15,0.004 -0.299,0.007 -0.449,0.007c-0,-0 -344.674,-0 -356.074,-0.001c-35.343,1.358 -73.071,-13.342 -99.605,-36.953c-16.928,-15.062 -29.272,-33.692 -34.214,-53.864c-2.597,16.534 -5.947,31.906 -10.04,46.114c-9.539,33.12 -36.647,67.547 -82.505,102.331c-44.562,33.802 -102.853,54.692 -175.063,62.131c-4.878,0.503 -9.685,-1.453 -12.81,-5.211l-60.231,-72.435c-4.024,-4.841 -4.456,-11.659 -1.186,-16.934l-3.649,-45.36l0.001,-0.001c15.017,-10.87 -0,0 -0,0c-16.953,12.272 -41.037,19.211 -72.654,20.176c-0.149,0.004 -0.299,0.007 -0.449,0.007c-0,-0 -356.097,-0 -356.073,-0.001c-35.261,1.345 -74.492,-15.05 -102.183,-40.121c-18.98,-17.183 -32.452,-38.362 -36.496,-60.245c-12.889,-12.826 -21.539,-30.524 -25.533,-53.323c-0.115,-0.655 -0.173,-1.319 -0.173,-1.984l0,-3.343l0.001,0c11.504,-20.461 20.349,-41.155 26.563,-62.075l-26.563,62.075c-13.444,23.911 -30.521,47.501 -51.266,70.741c-39.227,43.947 -82.586,70.771 -129.757,80.975c-44.876,9.708 -148.082,12.913 -309.633,9.155c-4.222,-0.099 -8.197,-2.003 -10.905,-5.225l-60.636,-72.129c-4.555,-5.418 0.762,-141.567 0.762,-141.567c0.044,-6.305 5.162,-11.412 11.502,-11.478c0,0 40.637,-0.425 40.637,-0.425l-9.281,-4.615c-3.938,-1.958 -6.426,-5.961 -6.426,-10.34c-0,-0 -0,-264.378 -0,-323.331l-33.215,0c-3.407,0 -6.643,-1.486 -8.852,-4.066c-2.209,-2.58 -3.168,-5.994 -2.624,-9.339l19.532,-120.186l-11.69,-13.999c-26.655,23.313 -61.621,37.461 -99.884,37.461c-23.125,0 -45.046,-5.168 -64.65,-14.402c-2.67,2.782 -6.435,4.515 -10.607,4.515l-135.922,0c-4.358,0 -8.491,-1.928 -11.276,-5.262l-60.431,-72.326c-2.538,-3.038 -3.728,-6.97 -3.298,-10.896l2.991,-27.31l0.892,-603.777c0.009,-6.378 5.211,-11.543 11.625,-11.543c-0,-0 135.454,-0 135.454,-0c3.093,-0 6.058,1.225 8.24,3.405c2.181,2.179 3.4,5.134 3.385,8.209l-0.22,47.329l2.831,-0.337c5.23,-0.622 10.272,1.589 13.363,5.586l-0.054,-0.015c-2.997,-0.829 -6.044,-1.654 -9.132,-2.474l9.132,2.474c56.531,15.625 98.636,33.187 126.448,52.381c24.788,17.106 50.409,43.269 76.705,78.623l-0.373,-182.668c-0.007,-3.07 1.215,-6.017 3.396,-8.19c2.181,-2.173 5.142,-3.394 8.229,-3.394l125.548,-2c2.746,-2.097 17.582,1.109 20.203,4.244l33.119,39.622l1.525,-16.5c0.481,-5.207 4.417,-9.445 9.599,-10.334l136.218,-23.386c2.831,-3.053 19.47,-2.627 22.197,0.74l47.797,34.029c10.592,-6.943 -27.874,446.382 46.09,470.463c6.555,2.133 108.431,-5.191 116.18,-5.375c88.42,-2.108 22.474,-494.835 24.191,-494.735l135.455,7.896c6.145,0.359 10.944,5.419 10.944,11.541l0,54.902l15.478,0.902c0.605,-0.808 1.326,-1.549 2.161,-2.2l112.1,-87.322c2.47,-1.924 5.618,-2.774 8.727,-2.356c3.109,0.419 5.917,2.069 7.784,4.576l48.761,65.472c2.75,0.958 5.174,2.718 6.935,5.083l138.79,186.354l-0.135,0.202l-1.359,2.021c0.454,-0.673 0.907,-1.346 1.359,-2.021l0.136,-0.201l-0.001,-0.001c49.19,-73.318 88.581,-153.713 118.185,-241.175c1.021,-3.015 3.245,-5.478 6.149,-6.81c2.904,-1.332 6.232,-1.416 9.2,-0.231l122.297,48.821c5.759,-1.428 11.825,0.74 15.351,5.503l5.605,7.571l4.796,-47.219c0.6,-5.905 5.599,-10.399 11.567,-10.399l408.382,0c-0,0 23.344,-1.66 26.785,2.434l26.343,31.342c27.442,-28.312 62.648,-75.781 95.815,-106.716c6.399,-5.968 -1.102,-60.688 -7.745,-85.981l-0.005,0.044c-0.193,1.91 -0.364,3.823 -0.51,5.738c-0.056,0.739 -5.875,37.059 -8.39,30.986c-3.913,-9.447 -7.759,-18.92 -11.541,-28.42l-0.001,-0.001c1.866,25.314 9.958,55.976 9.958,55.976l-0.487,0.127l-0.458,0.204c-0,0 -76.81,-170.715 -95.554,-280.876c-19.912,-116.883 7.41,-201.242 17.74,-227.513l3.247,-7.733c-0.582,1.274 -1.732,3.878 -3.247,7.733Zm1494.68,1153.23l-0.004,0.002l0.224,-0.169l-0.22,0.167Zm-198.663,-753.251c0,-0 0,-0 0,-0Z" style="fill:#fff;fill-opacity:0.33;fill-rule:nonzero;stroke:#ff385c;stroke-opacity:0.24;stroke-width:145.83px;"/><path d="M2507.45,794.699l-0.005,0.013c-1.899,-1.917 -3.693,-4.272 -5.29,-7.154c-0.192,-0.346 -0.382,-0.711 -0.57,-1.097c-0.918,-0.117 -1.871,-0.28 -2.847,-0.5c-6.794,-0.792 -15.645,-4.133 -21.694,-15.05c-11.096,-19.972 -14.639,-106.433 -30.93,-149.717l-102.885,-137.676c-1.99,-19.694 13.241,-23.504 13.241,-23.504l-37.716,-32.881l2.884,-0.417c0.076,-0.064 0.168,-0.108 0.27,-0.122l31.497,-4.559c-2.152,-1.592 -40.563,-30.043 -39.81,-32.386c0.097,-0.307 0.997,-0.271 2.587,0.068c-0.028,-0.086 -0.034,-0.18 -0.016,-0.272c0.038,-0.199 0.182,-0.36 0.374,-0.418c-0,-0 111.138,-33.673 209.59,-34.331c78.706,-0.534 194.237,21.779 200.054,22.913c4.856,-3.551 102.387,-74.444 186.362,-102.817c96.933,-32.741 188.622,-22.882 193.085,-22.376c3.546,-1.938 69.216,-37.184 149.798,-33.635c72.695,3.217 125.301,24.046 150.809,36.399c4.641,-3.259 70.842,-49.734 85.899,-59.437c60.73,-39.166 156.552,-64.256 156.552,-64.256c0.076,-0.02 0.155,-0.023 0.23,-0.009c1.333,-0.364 2.05,-0.552 2.05,-0.552l-11.165,26.897c18.59,-5.939 30.901,-9.162 30.901,-9.162l-6.264,15.09l2.662,-1.35c0.18,-0.091 0.395,-0.073 0.558,0.047c0.071,0.053 0.127,0.122 0.165,0.199l1.673,-0.848l-4.585,30.067l24.311,-12.33l-3.147,20.667l17.703,-11.928c0.185,-0.125 0.427,-0.121 0.608,0.009c0.141,0.1 0.223,0.261 0.228,0.429l1.606,-1.082c0,-0 -3.749,15.149 -8.241,36.596l27.978,-18.851c0,0 -21.101,85.233 -23.182,137.567c-1.972,49.78 10.567,142.271 10.567,142.271c0,-0 77.54,69.489 104.219,180.677c23.821,99.209 2.74,192.92 2.74,192.92c0,-0 -8.017,-13.513 -18.82,-30.283c-1.425,8.815 -2.537,13.757 -2.537,13.757c-0.049,0.217 -0.223,0.382 -0.439,0.418c-0.217,0.035 -0.433,-0.067 -0.546,-0.258c-0,0 -29.184,-49.201 -51.189,-76.285l-0,-0.001l-0.007,-0.007c-3.294,-4.055 -6.43,-7.618 -9.283,-10.444l9.283,10.444l0.007,0.008c-4.69,10.024 41.493,104.512 32.359,192.083c-2.697,25.908 -10.469,49.218 -20.236,69.332c1.731,2.076 3.412,4.197 5.041,6.361c3.81,-6.765 8.314,-13.269 13.228,-18.541c8.607,-9.234 18.588,-14.574 28.257,-13.069c9.79,1.523 17.388,8.754 22.405,19.047c6.666,13.677 8.779,32.816 6.652,47.623c-0,0.001 -0,0.002 -0,0.003c-1.64,11.373 -14.269,56.369 -19.36,86.267c-1.242,7.288 -2.034,13.627 -2.03,18.238c0.002,1.864 -0.096,3.303 0.374,4.094c0.346,0.576 1.1,1.035 1.999,1.626c1.586,1.041 3.614,2.089 5.968,3.181c7.858,3.644 19.047,7.601 30.432,12.268c11.921,4.886 24.027,10.551 33.086,17.31c6.717,5.012 11.803,10.685 14.407,16.953l0.001,0.003c4.957,11.922 8.694,40.513 2.886,64.974c-4.087,17.212 -12.878,32.269 -28.313,39.09c-22.519,9.958 -30.404,18.175 -53.467,75.647c-5.239,13.06 -6.656,28.348 -7.266,47.626l-1.265,59.967l-0.032,-0.001l-0.044,9.254l-0.004,0.001c-37.619,10.421 0,0 0,0c93.917,-26.016 197.367,-30.047 307.995,2.868l0,0c114.446,34.045 190.321,88.844 240.181,150.52c116.475,144.082 90.957,326.117 81.561,371.941c-1.481,7.226 -2.7,11.357 -2.941,11.884c-2.105,4.603 -6.287,3.301 -7.177,2.945c-1.087,-0.435 -3.064,-1.438 -3.494,-4.496c-0.033,-0.234 -0.052,-0.47 -0.056,-0.707c0,-0 -0.954,-63.478 -25.21,-105.211c-0.001,-0 -0.001,-0.001 -0.002,-0.002c-11.654,-20.072 -32.086,-43.051 -50.084,-61.733c2.083,4.409 3.958,8.758 5.475,12.837c0,0 0,0.001 0,0.001c8.719,23.451 23.851,73.413 23.851,73.413c0.764,2.521 -0.284,5.244 -2.531,6.574c-2.246,1.33 -5.1,0.917 -6.89,-0.998c0,0 -30.941,-33.143 -63.579,-49.961c-22.901,-11.8 -62.028,-19.517 -83.541,-23.099c11.568,13.281 29.977,35.1 40.617,51.242c6.184,9.36 10.499,18.998 13.574,27.966c0.001,0.001 0.001,0.003 0.002,0.005c7.669,22.433 7.382,40.81 7.382,40.81c-0.03,2.249 -1.366,4.268 -3.407,5.15c-2.04,0.881 -4.402,0.459 -6.022,-1.078c0,0 -42.469,-40.547 -91.027,-24.503c0,-0 0,-0 -0,-0c-32.217,10.641 -58.144,24.614 -79.528,41.034c-0.078,0.06 -0.157,0.117 -0.238,0.173c-42.951,33.071 -67.238,76.194 -86.175,122.552c-19.375,47.431 -33.188,98.239 -54.912,145.563c-0.042,0.092 -0.087,0.182 -0.133,0.27c-23.656,51.477 -56.577,98.847 -115.599,133.623c-0,0.001 -0.001,0.001 -0.002,0.002c-43.168,25.408 -85.751,40.414 -125.792,48.378c4.382,29.451 6.5,59.099 4.88,87.73c25.691,67.012 37.639,127.065 20.873,176.807l-41.563,60.677c20.609,-17.925 34.007,-38.256 41.563,-60.677l0.002,-0.002c4.519,12.47 9.194,26.997 12.925,42.273c7.187,29.421 10.765,61.569 3.559,87.408c0.79,1.075 2.308,3.184 3.322,4.837c0.046,0.069 0.09,0.139 0.134,0.211c8.4,13.912 24.866,40.04 31.974,63.615c5.333,17.685 5.109,34.024 -4.83,44.286c-0.001,-0 -0.001,0 -0.002,0.001c-3.517,3.629 -10.334,6.744 -19.876,8.835c-12.478,2.734 -30.036,4.111 -50.197,4.431c-61.754,0.98 -148.293,-7.828 -186.066,-15.66c-10.602,-2.198 -17.689,-4.634 -20.156,-6.509c-0.001,-0 -0.001,-0.001 -0.002,-0.001c-6.417,-4.877 -8.222,-13.751 -7.04,-23.907c1.354,-11.636 6.463,-25.067 7.121,-32.271l0.001,-0.011c-1.297,-0.58 -2.859,-1.478 -4.601,-2.778c-5.133,-3.829 -13.534,-11.545 -23.553,-21.207c-17.098,-16.486 -39.066,-38.733 -57.448,-56.437c-0.814,-0.22 -1.617,-0.444 -2.411,-0.673c-14.554,-4.193 -25.779,-9.904 -32.448,-16.817c-26.892,-27.858 -81.412,-99.604 -126.311,-146.221c-18.559,-19.269 -35.288,-34.242 -47.611,-39.367c-0,-0.001 -0.001,-0.001 -0.002,-0.001c-5.087,-2.118 -8.514,-2.894 -10.993,-1.345c-1.743,1.089 -2.727,3.184 -3.636,5.808c-1.308,3.775 -2.151,8.537 -2.928,14.027c-4.027,28.477 -6.015,74.613 -43.036,110.905c-17.745,17.397 -43.608,32.621 -81.858,42.392l-49.77,8.659c18.576,-1.959 35.086,-4.907 49.77,-8.659l0.01,-0.002c-18.733,22.632 -38.338,47.082 -50.835,60.927c-4.673,5.176 -8.453,8.952 -10.922,10.833c-0.768,0.585 -1.495,1.036 -2.164,1.379c0.946,7.18 6.558,20.389 8.355,31.95c1.572,10.106 0.105,19.043 -6.125,24.162c-2.397,1.972 -9.382,4.686 -19.887,7.301c-37.441,9.322 -123.574,21.543 -185.319,23.003c-20.158,0.477 -37.755,-0.205 -50.329,-2.444c-7.625,-1.358 -13.563,-3.428 -17.516,-5.966l-0,0c20.986,-12.047 33.806,-30.38 38.938,-54.235l-38.938,54.235c-17.408,9.994 -40.441,15.66 -69.366,16.56c-0.16,0.005 -0.321,0.008 -0.481,0.008c0,-0 -368.801,-0 -380.999,-0.001c-37.817,1.482 -78.186,-14.559 -106.578,-40.322c-18.113,-16.436 -31.32,-36.764 -36.609,-58.776c-2.778,18.043 -6.363,34.815 -10.742,50.319c-10.208,36.14 -39.212,73.706 -88.28,111.661c-47.682,36.884 -110.053,59.678 -187.319,67.796c-5.218,0.549 -10.362,-1.585 -13.705,-5.686l-64.448,-79.04c-4.306,-5.282 -4.768,-12.721 -1.269,-18.478l-3.904,-49.495l0,-0.001c16.069,-11.861 0,0 0,0c-18.139,13.39 -43.909,20.963 -77.739,22.015c-0.16,0.005 -0.321,0.008 -0.481,0.008c-0,-0 -381.023,-0 -380.998,-0.001c-37.729,1.468 -79.707,-16.422 -109.336,-43.779c-20.309,-18.75 -34.724,-41.859 -39.051,-65.738c-13.792,-13.995 -23.047,-33.307 -27.32,-58.184c-0.123,-0.715 -0.185,-1.439 -0.185,-2.165l0,-3.648l0,-0c12.309,-22.326 21.774,-44.908 28.423,-67.735l-28.423,67.735c-14.385,26.091 -32.657,51.831 -54.854,77.191c-41.973,47.953 -88.367,77.222 -138.84,88.358c-48.017,10.593 -158.448,14.089 -331.308,9.989c-4.517,-0.108 -8.77,-2.185 -11.668,-5.701l-64.881,-78.705c-4.874,-5.912 0.815,-154.475 0.815,-154.475c0.048,-6.88 5.524,-12.452 12.308,-12.524c0,-0 43.482,-0.465 43.482,-0.465l-9.931,-5.035c-4.214,-2.137 -6.876,-6.505 -6.876,-11.283c-0,0 -0,-288.483 -0,-352.81l-35.54,-0c-3.646,-0 -7.108,-1.622 -9.471,-4.437c-2.364,-2.815 -3.39,-6.54 -2.809,-10.19l20.9,-131.144l-12.508,-15.276c-28.522,25.439 -65.935,40.877 -106.877,40.877c-24.743,-0 -48.198,-5.639 -69.175,-15.715c-2.857,3.035 -6.886,4.926 -11.35,4.926l-145.436,0c-4.664,0 -9.085,-2.104 -12.066,-5.741l-64.66,-78.921c-2.716,-3.315 -3.99,-7.605 -3.529,-11.889l3.2,-29.8l0.954,-658.826c0.01,-6.96 5.576,-12.596 12.439,-12.596c-0,0 144.936,0 144.936,0c3.309,0 6.482,1.337 8.816,3.715c2.335,2.379 3.638,5.602 3.623,8.958l-0.236,51.644l3.03,-0.367c5.595,-0.679 10.991,1.733 14.298,6.094l-0.058,-0.016c-3.207,-0.904 -6.467,-1.805 -9.771,-2.699l9.771,2.699c60.489,17.05 105.541,36.213 135.3,57.157c26.523,18.666 53.937,47.215 82.074,85.792l-0.399,-199.323c-0.007,-3.35 1.3,-6.565 3.634,-8.937c2.333,-2.371 5.501,-3.703 8.805,-3.703l134.336,-2.183c2.939,-2.288 18.813,1.211 21.617,4.632l35.438,43.234l1.632,-18.005c0.514,-5.681 4.726,-10.305 10.27,-11.276l145.754,-25.518c3.029,-3.331 20.833,-2.866 23.75,0.808l51.143,37.132c11.334,-7.577 -29.825,487.08 49.317,513.356c7.013,2.329 116.021,-5.663 124.313,-5.865c94.609,-2.3 24.046,-539.951 25.884,-539.841l144.936,8.616c6.576,0.391 11.711,5.912 11.711,12.592l0,59.908l16.561,0.985c0.647,-0.882 1.419,-1.691 2.313,-2.401l119.947,-95.284c2.643,-2.1 6.011,-3.026 9.338,-2.57c3.327,0.456 6.331,2.257 8.329,4.993l52.174,71.441c2.943,1.045 5.536,2.966 7.421,5.546l148.505,203.346l-0.144,0.22l-1.455,2.204c0.485,-0.734 0.97,-1.468 1.455,-2.204l0.144,-0.22l0,-0c52.634,-80.004 94.781,-167.729 126.458,-263.165c1.092,-3.289 3.472,-5.977 6.579,-7.431c3.108,-1.453 6.668,-1.544 9.844,-0.252l130.858,53.272c6.162,-1.558 12.653,0.808 16.426,6.005l5.997,8.262l5.132,-51.525c0.642,-6.443 5.99,-11.346 12.376,-11.346l436.969,-0c0,-0 24.979,-1.812 28.661,2.655l28.187,34.199c29.362,-30.892 67.033,-82.689 102.521,-116.445c6.847,-6.512 -1.179,-66.221 -8.287,-93.82l-0.005,0.048c-0.207,2.084 -0.389,4.171 -0.545,6.26c-0.061,0.807 -6.287,40.439 -8.978,33.812c-4.187,-10.308 -8.303,-20.646 -12.349,-31.011l-0,-0.002c1.996,27.622 10.654,61.08 10.654,61.08l-0.52,0.139l-0.491,0.222c-0,0 -82.187,-186.28 -102.243,-306.484c-21.305,-127.54 7.929,-219.591 18.982,-248.257l3.474,-8.438c-0.622,1.39 -1.852,4.231 -3.474,8.438Zm1599.31,1258.37l-0.004,0.003l0.24,-0.185l-0.236,0.182Zm-212.569,-821.928c-0,-0 -0,-0 -0,-0Z" style="fill:#728db4;fill-opacity:0;fill-rule:nonzero;stroke:#36e1b7;stroke-opacity:0.32;stroke-width:145.83px;"/><g><path d="M364.127,1567.31l90.521,-10.833l43.755,111.191l15.797,-39.028c59.162,15.797 94.192,39.081 122.534,58.75c28.342,19.669 57.69,51.806 88.046,96.409l15.227,13.035l-0.465,-228.595l73.655,-72.37l60.157,72.37l-0,521.307c2.168,23.851 -8.131,49.173 -30.897,75.966c-22.767,26.794 -69.462,38.332 -140.084,34.615l-60.122,-72.399l60.122,-59.09c30.974,-2.478 43.984,-22.456 39.028,-59.936c0.31,-21.063 -4.259,-43.907 -13.706,-68.532c-9.448,-24.625 -38.874,-57.458 -88.279,-98.5c-49.405,-41.042 -96.409,-67.758 -141.013,-80.148l-0,438.605l-135.206,-0l-60.112,-72.349l61.042,-560.468Z" style="fill:#162f54;fill-rule:nonzero;stroke:#162f54;stroke-width:29.17px;"/><path d="M1073.14,1558.48c-17.656,162.928 -20.056,272.114 -7.202,327.559c12.855,55.445 33.376,99.275 61.563,131.489c28.187,32.214 91.995,34.407 191.425,17.68l-0.465,-470.223l134.741,7.898l0,608.657l-134.741,13.474l-84.38,-64.937l4.18,-51.886l19.878,-33.095l-24.058,84.981l84.38,64.937l-53.431,13.939c-87.04,1.548 -152.784,-10.687 -197.233,-36.706c-44.449,-26.018 -81.077,-78.831 -109.884,-158.436c-28.806,-79.606 -40.577,-194.523 -35.311,-344.751l7.899,-85.955l84.141,-97.275l58.498,72.65Z" style="fill:#162f54;fill-rule:nonzero;stroke:#162f54;stroke-width:29.17px;"/><path d="M1593.82,1548.26l201.646,272.269c54.516,-78.366 97.726,-164.941 129.63,-259.724l76.511,-20.119l53.119,72.157c-41.196,107.792 -101.133,211.868 -179.809,312.227l168.658,226.271l-117.085,93.39l-147.286,-201.182c-29.426,35.001 -59.394,65.512 -89.904,91.531c-30.51,26.018 -64.705,45.163 -116.742,73.97l-92.808,-98.871c106.244,-69.694 174.626,-125.018 225.115,-177.675l-222.555,-296.895l111.51,-87.349Z" style="fill:#162f54;fill-rule:nonzero;stroke:#162f54;stroke-width:29.17px;"/><path d="M2095.31,1565.92l361.572,-72.15l60.306,72.15l-17.191,139.387l-150.074,-0l0,301.54c-5.265,46.773 10.532,74.495 47.392,83.168l-33.918,131.024c-42.435,1.239 -78.289,-12.545 -107.56,-41.352c-29.271,-28.806 -44.371,-66.905 -45.301,-114.297l0,-332.206l59.937,-28.806l-189.102,-0.465l-59.107,-72.469l73.046,-65.524Z" style="fill:#162f54;fill-rule:nonzero;stroke:#162f54;stroke-width:29.17px;"/><path d="M304.014,1494.94l134.74,0l-0.464,100.359l15.797,-39.028c59.162,15.797 102.914,33.53 131.256,53.199c28.342,19.669 57.691,51.806 88.046,96.41l6.505,18.584l-0.465,-228.594l133.812,-0l-0,521.307c2.168,23.851 -8.131,49.173 -30.897,75.966c-22.767,26.793 -69.462,38.332 -140.084,34.615l-0,-131.489c30.974,-2.478 43.984,-22.457 39.028,-59.936c0.31,-21.063 -4.259,-43.907 -13.706,-68.532c-9.448,-24.625 -38.874,-57.459 -88.279,-98.5c-49.405,-41.042 -96.409,-67.758 -141.013,-80.148l-0,438.605l-135.206,-0l0.93,-632.818Z" style="fill:#fff;fill-rule:nonzero;stroke:#162f54;stroke-width:23.13px;"/><path d="M1013.03,1486.11c-17.656,162.928 -20.056,272.114 -7.202,327.559c12.855,55.445 33.376,99.275 61.563,131.489c28.187,32.213 91.995,39.957 191.425,23.231l-0.465,-475.775l134.741,7.899l0,608.657l-134.741,13.474l0,-76.663l-24.16,84.097l-29.271,6.504c-87.04,1.549 -152.784,-10.686 -197.233,-36.705c-44.449,-26.019 -81.077,-78.831 -109.884,-158.436c-28.806,-79.606 -40.577,-194.523 -35.311,-344.751l7.899,-85.955l142.639,-24.625Z" style="fill:#fff;fill-rule:nonzero;stroke:#162f54;stroke-width:23.13px;"/><path d="M1540.84,1475.89l201.647,272.269c54.516,-78.366 97.726,-164.941 129.63,-259.724l129.63,52.038c-41.197,107.792 -101.133,211.868 -179.809,312.227l168.658,226.271l-117.085,93.389l-147.286,-201.181c-29.426,35.001 -59.394,65.511 -89.905,91.53c-30.51,26.019 -71.784,53.432 -123.822,82.239l-95.712,-101.288c106.244,-69.694 184.61,-130.869 235.099,-183.526l-222.554,-296.895l111.509,-87.349Z" style="fill:#fff;fill-rule:nonzero;stroke:#162f54;stroke-width:23.13px;"/><path d="M2035.2,1493.54l421.878,-0l-17.191,139.387l-150.074,-0l0,301.54c-5.265,46.772 10.532,74.495 47.392,83.168l-33.918,131.024c-42.435,1.239 -78.289,-12.545 -107.56,-41.352c-29.271,-28.806 -44.371,-66.906 -45.301,-114.297l0,-332.206l59.937,-28.807l-189.102,-0.464l13.939,-137.993Z" style="fill:#fff;fill-rule:nonzero;stroke:#162f54;stroke-width:23.13px;"/></g><g><g><path d="M758.651,2257.58l409.798,-0l28.946,-72.17l60.262,72.635l-0,282.491c3.717,47.391 -0.852,92.847 -13.707,136.367c-12.854,43.519 -37.634,85.955 -74.339,127.306c-36.706,41.352 -77.128,66.829 -121.267,76.431c-44.139,9.602 -145.659,12.545 -304.561,8.828l-60.316,-72.151l61.246,-59.802l88.278,-0.929l-52.038,-26.019l0,-334.994l-44.604,0l22.302,-137.993Zm156.578,137.993l0,364.73c47.082,6.504 87.659,-0.697 121.732,-21.605c34.072,-20.909 56.839,-47.082 68.299,-78.522c11.461,-31.439 15.023,-119.64 10.687,-264.603l-200.718,0Z" style="fill:#162f54;fill-rule:nonzero;stroke:#162f54;stroke-width:29.17px;"/><path d="M1439.79,2255.72l0,60.866l36.241,-60.866l272.657,-54.041c79.587,33.594 89.594,117.85 87.426,213.872l0,418.626c-7.434,34.072 -36.395,51.883 -86.884,53.431l-354.508,0c-52.658,2.169 -115.038,-41.03 -123.401,-89.041l31.87,-514.505l136.599,-28.342Zm0,137.064l0,357.76l259.26,0l0,-357.76l-259.26,0Z" style="fill:#162f54;fill-rule:nonzero;stroke:#162f54;stroke-width:29.17px;"/><path d="M1938.8,2258.51l158.221,-72.397l60.152,72.397l-0,485.532c-1.549,42.126 -6.737,78.598 -15.565,109.419c-8.828,30.82 -34.46,62.414 -76.895,94.783c-42.436,32.368 -98.036,52.115 -166.8,59.239l-59.914,-72.458l48.763,-66.929c43.365,-3.717 77.437,-21.45 102.217,-53.199c24.78,-31.749 35.002,-162.231 30.665,-391.446l63.189,-32.523l-175.628,-0l-60.288,-72.378l91.883,-60.04Z" style="fill:#162f54;fill-rule:nonzero;stroke:#162f54;stroke-width:29.17px;"/><path d="M2343.48,2255.72l-0,60.866l36.241,-60.866l277.874,-46.236c79.792,26.476 84.377,110.045 82.209,206.067l-0,418.626c-7.434,34.072 -36.396,51.883 -86.885,53.431l-354.508,0c-52.657,2.169 -111.226,-36.27 -119.589,-84.281l28.059,-519.265l136.599,-28.342Zm-0,137.064l-0,357.76l259.26,0l-0,-357.76l-259.26,0Z" style="fill:#162f54;fill-rule:nonzero;stroke:#162f54;stroke-width:29.17px;"/><path d="M698.538,2185.21l409.798,-0l89.208,0.464l-0,282.491c3.717,47.392 -0.852,92.848 -13.706,136.367c-12.855,43.52 -37.635,85.956 -74.34,127.307c-36.705,41.352 -77.128,66.829 -121.267,76.431c-44.139,9.602 -145.659,12.545 -304.561,8.828l0.93,-131.953l88.278,-0.93l-52.038,-26.019l0,-334.993l-44.604,-0l22.302,-137.993Zm156.578,137.993l0,364.729c47.082,6.505 87.659,-0.697 121.732,-21.605c34.072,-20.908 56.839,-47.082 68.299,-78.521c11.461,-31.44 15.023,-119.641 10.687,-264.603l-200.718,-0Z" style="fill:#fff;fill-rule:nonzero;stroke:#162f54;stroke-width:23.13px;"/><path d="M1379.68,2183.35l0,60.866l36.241,-60.866l306.651,0c37.79,10.532 55.6,63.809 53.432,159.831l0,418.625c-7.434,34.073 -36.395,51.883 -86.884,53.432l-354.508,0c-52.657,2.168 -83.168,-20.753 -91.531,-68.764l0,-534.782l136.599,-28.342Zm0,137.064l0,357.76l259.26,0l0,-357.76l-259.26,0Z" style="fill:#fff;fill-rule:nonzero;stroke:#162f54;stroke-width:23.13px;"/><path d="M1878.68,2186.14l218.373,-0l-0,485.531c-1.549,42.126 -6.737,78.599 -15.565,109.419c-8.828,30.82 -34.46,62.415 -76.895,94.784c-42.436,32.368 -98.036,52.115 -166.8,59.239l-11.151,-139.387c43.365,-3.717 77.437,-21.45 102.217,-53.199c24.78,-31.75 35.002,-162.231 30.665,-391.446l63.189,-32.523l-175.627,-0l31.594,-132.418Z" style="fill:#fff;fill-rule:nonzero;stroke:#162f54;stroke-width:23.13px;"/><path d="M2283.37,2183.35l-0,60.866l36.241,-60.866l306.651,0c37.789,10.532 55.6,63.809 53.432,159.831l-0,418.625c-7.434,34.073 -36.396,51.883 -86.885,53.432l-354.508,0c-52.657,2.168 -83.167,-20.753 -91.53,-68.764l-0,-534.782l136.599,-28.342Zm-0,137.064l-0,357.76l259.26,0l-0,-357.76l-259.26,0Z" style="fill:#fff;fill-rule:nonzero;stroke:#162f54;stroke-width:23.13px;"/></g></g><g><path d="M3662.25,2814.34c-1.969,-3.234 -4.697,-5.678 -4.204,-7.31c17.618,-57.915 -29.938,-153.119 -29.938,-153.119c-37.145,36.399 -92.927,134.891 -301.511,92.47c12.524,2.544 102.752,99.567 111.608,100.083c1.886,0.103 2.386,1.894 2.138,4.672c35.36,1.428 77.189,0.644 112.489,-4.395c30.752,-4.389 73.512,-18.757 109.418,-32.401" style="fill:#fff;fill-rule:nonzero;stroke:#000;stroke-width:10.42px;stroke-linecap:butt;stroke-miterlimit:2;"/><path d="M3552.84,2846.74c-35.309,5.04 -77.127,5.832 -112.488,4.404c-0.918,11.002 -13.708,38.402 -2.155,47.061c14.501,10.863 226.786,32.322 250.022,8.68c20.118,-20.482 -13.206,-71.716 -25.96,-92.546c-35.907,13.644 -78.667,28.012 -109.419,32.401" style="fill:#ff385c;fill-rule:nonzero;stroke:#000;stroke-width:10.42px;stroke-linecap:butt;stroke-miterlimit:2;"/><path d="M2980.1,2735.74c-17.47,-5.826 -145.833,4.177 -195.748,-33.046c-24.354,-18.166 -14.359,-54.468 -18.409,-94.486c-0.113,-0.093 -0.24,-0.22 -0.346,-0.324c0,0 -40.27,115.296 -20.42,172.476c0.547,1.603 -2.068,4.155 -3.91,7.47c36.39,12.207 79.701,24.925 110.597,28.098c35.479,3.664 77.292,2.827 112.564,0.009c-0.34,-2.758 0.083,-4.571 1.965,-4.749c8.08,-0.781 79.592,-95.905 101.342,-112.333c-39.844,23.851 -73.666,41.539 -87.635,36.885" style="fill:#fff;fill-rule:nonzero;stroke:#000;stroke-width:10.42px;stroke-linecap:butt;stroke-miterlimit:2;"/><path d="M3779.32,2238.34c-41.929,-41.024 -151.802,-197.419 -255.535,-158.718c43.162,-73.585 -118.339,-187.899 -191.969,-276.229c-74.159,81.225 -115.669,149.334 -115.669,149.334c0,0 158.038,453.431 212.217,473.253c54.18,19.831 179.242,46.764 310.183,-29.234c53.917,-31.327 83.9,-74.06 105.48,-120.443c-23.366,-7.236 -46.37,-20.019 -64.707,-37.963" style="fill:#ff385c;fill-rule:nonzero;stroke:#0b0b0b;stroke-width:10.42px;stroke-linecap:butt;stroke-miterlimit:2;"/><path d="M3789.74,1832.8c-57.725,28.574 -174.996,-95.786 -262.995,-196.596c-78.315,50.131 -144.263,111.702 -194.932,167.187c73.639,88.329 235.132,202.644 191.978,276.228c103.724,-38.7 213.606,117.693 255.527,158.719c18.345,17.943 41.349,30.725 64.716,37.971c40.328,-86.632 51.244,-186.03 132.959,-247.909c-87.936,-58.061 -196.192,-113.976 -187.253,-195.6" style="fill:#fff;fill-rule:nonzero;stroke:#000;stroke-width:10.42px;stroke-linecap:butt;stroke-miterlimit:2;"/><path d="M3990.61,1556.71c-142.687,-41.864 -272.404,-17.863 -383.159,34.573c-28.166,13.338 -55.097,28.526 -80.711,44.924c87.999,100.81 205.27,225.17 262.994,196.596c-8.938,81.624 99.317,137.539 187.255,195.609c20.294,-15.366 44.89,-28.458 75.465,-38.417c47.87,-15.597 89.795,23.612 89.795,23.612c-0,-0 0.216,-16.043 -6.576,-35.635c-2.727,-7.839 -6.545,-16.267 -12.027,-24.449c-15.047,-22.51 -46.985,-57.167 -46.985,-57.167c-0,-0 62.525,8.05 93.576,23.825c31.061,15.783 60.527,46.861 60.527,46.861c-0,0 -14,-45.591 -22.068,-66.991c-5.785,-15.331 -17.311,-34.937 -24.284,-44.723c-3.844,-3.765 -6.021,-6.042 -5.523,-6.114c0.703,-0.1 2.767,2.267 5.523,6.114c15.011,14.814 56.691,53.775 75.116,85.067c23.154,39.281 24.158,99.006 24.158,99.006c0.373,2.608 96.373,-368.454 -293.076,-482.691" style="fill:#ff385c;fill-rule:nonzero;stroke:#0b0b0b;stroke-width:10.42px;stroke-linecap:butt;stroke-miterlimit:2;"/><path d="M3623.49,2526.85c5.844,-95.287 -34.946,-203.154 -55.362,-269.454c-17.753,-57.634 -36.861,-99.182 -53.407,-136.645l-54.994,32.88c-4.404,-12.849 -8.241,-24.335 -10.383,-31.259c-0.362,-1.265 -0.784,-2.567 -1.137,-3.833c-55.996,33.622 -186.052,90.82 -327.929,104.259c-147.45,13.971 -237.925,-30.059 -272.936,-56.522c-27.534,33.991 -29.452,68.659 -37.798,101.301c-0.117,0.516 -0.102,1.259 -0.17,1.868c-11.451,34.112 -21.046,66.088 -29.111,95.992c-19.007,43.155 -28.564,103.262 -31.089,144.11c-0.65,3.971 -1.285,7.985 -1.87,11.847c-14.128,93.49 -12.29,148.683 37.623,185.897c49.918,37.241 178.983,45.838 197.3,43.914c216.606,-22.526 123.965,-188.564 181.222,-165.058c39.59,16.237 127.72,134.829 163.433,171.309c35.697,36.492 226.818,27.322 279.247,-17.679c60.217,-51.644 51.418,-125.76 17.361,-212.927" style="fill:#ff385c;fill-rule:nonzero;stroke:#0b0b0b;stroke-width:10.42px;stroke-linecap:butt;stroke-miterlimit:2;"/><path d="M3602.17,1547.71c-32.914,-4.647 -64.129,-26.411 -85.027,-41.366c-1.511,4.621 -36.377,72.263 -36.377,72.263c0,0 -76.204,-2.973 -84.483,3.74c-8.266,6.729 -62.75,84.737 -56.154,105.047c6.595,20.311 51.472,101.71 66.104,106.996c14.606,5.299 229.731,3.256 261.05,-26.171c31.322,-29.41 33.788,-96.315 32.768,-116.504l0.535,-111.422c-26.837,6.936 -62.915,12.44 -98.416,7.417" style="fill:#fff;fill-rule:nonzero;stroke:#000;stroke-width:10.42px;stroke-linecap:butt;stroke-miterlimit:2;"/><path d="M3450.46,1628.14l31.086,-46.015" style="fill:none;fill-rule:nonzero;stroke:#020202;stroke-width:2.08px;stroke-linecap:butt;stroke-linejoin:miter;stroke-miterlimit:10;"/><path d="M2920.58,1277.42c3.603,25.242 -13.941,48.608 -39.184,52.211c-25.242,3.602 -48.623,-13.922 -52.226,-39.164c-3.605,-25.26 13.939,-48.626 39.182,-52.229c25.242,-3.603 48.623,13.922 52.228,39.182" style="fill:#020202;fill-rule:nonzero;"/><path d="M2886.75,1261.4c0,0 -25.542,-7.915 -34.22,9.298c-8.943,17.706 4.757,33.325 4.757,33.325" style="fill:none;fill-rule:nonzero;stroke:#fff;stroke-width:12.5px;stroke-linejoin:miter;stroke-miterlimit:10;"/><path d="M3270.09,1227.53c3.603,25.243 -13.942,48.608 -39.184,52.211c-25.233,3.602 -48.614,-13.922 -52.217,-39.165c-3.606,-25.26 13.939,-48.626 39.172,-52.227c25.243,-3.603 48.623,13.921 52.229,39.181" style="fill:#020202;fill-rule:nonzero;"/><path d="M3236.27,1211.52c-0,0 -25.543,-7.915 -34.229,9.3c-8.934,17.704 4.756,33.324 4.756,33.324" style="fill:none;fill-rule:nonzero;stroke:#fff;stroke-width:12.5px;stroke-linejoin:miter;stroke-miterlimit:10;"/><path d="M2591.31,1402.74c0,-0 -76.376,-170.694 -95.013,-280.841c-24.053,-141.979 21.253,-235.924 21.253,-235.924c0,-0 -19.077,4.93 -29.365,-13.383c-10.314,-18.308 -13.608,-97.569 -28.753,-137.248c-28.082,-73.616 -94.547,-115.379 -95.648,-126.211c-1.85,-18.054 12.301,-21.545 12.301,-21.545l-35.055,-30.144l32.292,-4.609l-37.21,-29.846c0,0 103.247,-30.848 194.707,-31.451c75.037,-0.502 186.096,21.037 186.096,21.037c0,-0 93.271,-67.651 173.292,-94.312c92.282,-30.737 179.445,-20.473 179.445,-20.473c0,0 62.255,-34.188 139.138,-30.849c67.738,2.956 116.688,22.153 140.269,33.445c-0,0 65.573,-45.424 80.078,-54.642c56.402,-35.869 145.396,-58.843 145.396,-58.843l-19.682,46.757l36.9,-18.454l-7.981,51.681l42.132,-27.992c0,-0 -19.617,78.135 -21.552,126.11c-1.833,45.635 9.824,130.423 9.824,130.423c0,0 72.086,63.703 96.888,165.632c22.145,90.947 2.547,176.854 2.547,176.854c0,-0 -56.128,-93.29 -67.871,-85.529c-7.326,4.861 38.328,94.123 29.595,176.681c-8.885,84.16 -77.011,138.422 -77.011,138.422c0,-0 20.292,-108.847 13.928,-163.939c-13.182,-113.732 -38.053,-105.487 -38.053,-105.487c-3.4,-9.124 24.299,27.71 17.156,139.031c-6.082,95.076 -115.769,208.7 -115.769,208.7c0,-0 0.204,-34.459 -7.178,-55.384c-7.377,-20.889 -23.977,-50.017 -23.977,-50.017c-0,0 1.108,31.502 -6.885,59.553c-7.982,28.068 -25.082,52.641 -26.159,52.795c0,-0 -11.265,-109.465 -28.227,-151.946c-27.41,-68.598 -93.413,-115.141 -93.413,-115.141l53.475,225.567c-0,-0 -63.459,-172.583 -87.127,-215.342c-23.694,-42.754 -68.114,-130.113 -76.836,-125.935c-11.877,5.673 5.663,89.749 2.087,156.385c-4.228,78.228 -42.169,151.05 -42.169,151.05l-28.603,-46.477l-40.304,133.192c0,-0 -53.823,-38.455 -73.52,-68.602c-19.67,-30.151 -47.665,-92.79 -56.069,-90.137c-7.888,2.506 0.044,52.033 6.114,78.976c6.521,28.886 24.325,86.94 19.295,88.793c-8.528,3.115 -49.005,-97.022 -64.681,-145.317c-15.684,-48.293 -42.229,-172.679 -42.229,-172.679c-0,-0 -50.203,115.505 -65.899,205.65c-15.703,90.101 7.82,208.388 7.82,208.388c-0,0 -31.292,-19.755 -61.205,-49.126c-28.488,-27.984 -48.29,-76.616 -48.29,-76.616c0,-0 -6.215,55.715 2.146,97.116c12.498,61.918 55.461,101.214 50.738,104.077c0,-0 -23.268,-4.008 -40.592,-22.751c-9.272,-10.047 -26.559,-32.092 -26.559,-32.092c-0,-0 -6.77,19.575 -9.446,41.609c-1.815,15.09 0.011,46.144 0.011,46.144c-0,-0 -27.381,-37.851 -43.058,-70.752c-15.7,-32.943 -35.061,-122.453 -35.061,-122.453c0,0 -6.736,17.773 -8.612,47.384c-1.658,26.057 10.139,71.037 10.139,71.037" style="fill:#fff;fill-rule:nonzero;"/><path d="M2570.97,1387.48c-0,0 -76.376,-170.693 -95.014,-280.841c-24.052,-141.979 21.254,-235.924 21.254,-235.924c0,0 -19.077,4.93 -29.365,-13.382c-10.315,-18.308 -13.608,-97.569 -28.754,-137.248c-28.081,-73.616 -94.546,-115.379 -95.647,-126.211c-1.851,-18.055 12.3,-21.546 12.3,-21.546l-35.054,-30.144l32.292,-4.609l-37.21,-29.845c0,-0 103.246,-30.849 194.707,-31.452c75.037,-0.502 186.096,21.037 186.096,21.037c0,0 93.271,-67.651 173.292,-94.312c92.282,-30.736 179.445,-20.472 179.445,-20.472c0,-0 62.255,-34.189 139.138,-30.849c67.738,2.955 116.687,22.152 140.269,33.445c-0,-0 65.573,-45.425 80.078,-54.643c56.402,-35.868 145.396,-58.842 145.396,-58.842l-19.682,46.757l36.9,-18.454l-7.981,51.68l42.132,-27.992c-0,0 -19.617,78.136 -21.552,126.111c-1.833,45.635 9.824,130.423 9.824,130.423c0,-0 72.086,63.702 96.888,165.631c22.145,90.947 2.547,176.854 2.547,176.854c-0,0 -56.128,-93.289 -67.872,-85.528c-7.325,4.86 38.329,94.123 29.596,176.68c-8.885,84.16 -77.011,138.422 -77.011,138.422c-0,0 20.292,-108.847 13.927,-163.938c-13.182,-113.733 -38.052,-105.488 -38.052,-105.488c-3.4,-9.123 24.299,27.711 17.157,139.04c-6.084,95.067 -115.77,208.691 -115.77,208.691c0,0 0.204,-34.459 -7.178,-55.384c-7.378,-20.889 -23.977,-50.016 -23.977,-50.016c-0,-0 1.108,31.502 -6.885,59.553c-7.982,28.067 -25.082,52.641 -26.159,52.794c0,0 -11.265,-109.465 -28.227,-151.945c-27.41,-68.599 -93.413,-115.141 -93.413,-115.141l53.475,225.566c-0,0 -63.459,-172.583 -87.127,-215.341c-23.694,-42.755 -68.114,-130.114 -76.836,-125.935c-11.878,5.673 5.663,89.748 2.087,156.385c-4.228,78.227 -42.169,151.049 -42.169,151.049l-28.603,-46.477l-40.304,133.192c0,0 -53.823,-38.454 -73.52,-68.601c-19.67,-30.151 -47.665,-92.79 -56.069,-90.138c-7.889,2.507 0.043,52.034 6.114,78.977c6.521,28.885 24.325,86.939 19.295,88.792c-8.529,3.116 -49.005,-97.021 -64.682,-145.325c-15.683,-48.285 -42.229,-172.671 -42.229,-172.671c0,0 -50.202,115.505 -65.899,205.651c-15.702,90.1 7.819,208.379 7.819,208.379c0,-0 -31.291,-19.747 -61.203,-49.117c-28.488,-27.984 -48.29,-76.617 -48.29,-76.617c-0,0 -6.216,55.716 2.146,97.117c12.498,61.917 55.461,101.213 50.738,104.076c0,0 -23.268,-4.008 -40.592,-22.751c-9.272,-10.047 -26.56,-32.092 -26.56,-32.092c0,0 -6.769,19.575 -9.446,41.609c-1.815,15.09 0.011,46.144 0.011,46.144c0,0 -27.381,-37.851 -43.057,-70.752c-15.7,-32.942 -35.061,-122.452 -35.061,-122.452c0,-0 -6.736,17.772 -8.612,47.384c-1.658,26.057 10.139,71.036 10.139,71.036" style="fill:#162f54;fill-rule:nonzero;stroke:#0b0b0b;stroke-width:1px;stroke-linecap:butt;stroke-miterlimit:2;"/><path d="M2436.09,719.083c15.145,39.679 18.439,118.94 28.753,137.248c7.999,14.235 21.267,16.421 26.802,15.812c40.057,-56.277 92.649,-141.328 87.716,-183.772c-4.883,-41.853 -60.703,-80.739 -119.265,-119.18c-34.343,-22.553 -146.103,-65.798 -147.203,-62.371c-0.72,2.209 37.096,29.752 37.096,29.752l-32.301,4.611l35.063,30.142c0,0 -14.159,3.493 -12.309,21.547" style="fill:#fff;fill-rule:nonzero;stroke:#fff;stroke-width:1px;stroke-linecap:butt;stroke-miterlimit:2;"/><path d="M3598.84,576.166c-0,0 -11.658,-84.797 -9.824,-130.423c1.933,-47.984 21.541,-126.118 21.541,-126.118l-42.132,27.992l7.992,-51.673l-36.909,18.455l19.682,-46.757c-0,0 -1.874,0.486 -5.186,1.403c-37.242,43.669 -83.925,101.628 -106.182,141.923c-32.833,59.487 -57.678,134.654 -57.678,134.654c-0,0 57.83,-18.226 130.877,0.991c20.932,5.522 54.639,21.328 85.691,37.176c-4.861,-4.919 -7.872,-7.623 -7.872,-7.623" style="fill:#fff;fill-rule:nonzero;stroke:#fff;stroke-width:1px;stroke-linecap:butt;stroke-miterlimit:2;"/><path d="M2851.87,2815.93c35.48,3.663 77.291,2.818 112.564,0.008c1.346,10.961 15.204,37.864 3.986,46.948c-14.063,11.426 -225.348,41.138 -249.488,18.418c-20.899,-19.667 10.397,-72.169 22.341,-93.473c36.39,12.207 79.691,24.917 110.597,28.099" style="fill:#ff385c;fill-rule:nonzero;stroke:#000;stroke-width:10.42px;stroke-linecap:butt;stroke-miterlimit:2;"/><path d="M2665.44,1976.2c4.73,-26.931 -0.598,-53.253 -5.596,-69.941c-5.787,1.071 -9.498,1.728 -9.498,1.728c-18.921,4.69 -41.368,4.524 -42.541,4.51c-0.028,5.471 -0.638,10.808 -2.104,15.803c-8.894,30.205 -39.311,43.747 -39.311,43.747c-0,-0 8.346,38.878 -7.22,61.535c15.212,4.767 32.977,0.442 59.969,4.518c18.229,-14.944 40.46,-28.698 46.301,-61.9" style="fill:#ff385c;fill-rule:nonzero;stroke:#000;stroke-width:10.42px;stroke-linecap:butt;stroke-miterlimit:2;"/><path d="M2845.64,1642.3c-2.097,3.887 -33.918,20.898 -34.768,33.898c-6.86,104.333 -50.867,195.867 -63.961,206.573c-10.375,8.501 -64.88,19.35 -87.057,23.497c4.988,16.689 10.317,43.011 5.587,69.942c-5.841,33.202 -28.074,46.947 -46.303,61.891c9.404,1.42 45.935,2.122 88.384,0.773c64.726,-2.057 143.21,-8.881 160.266,-25.193c19.063,-18.26 48.885,-72.431 65.324,-122.186c-6.815,-24.52 -12.711,-46.42 -16.484,-67.261c-14.288,-78.718 2.125,-177.838 2.125,-177.838c0,-0 -57.4,-33.103 -73.113,-4.096" style="fill:#fff;fill-rule:nonzero;stroke:#000;stroke-width:10.42px;stroke-linecap:butt;stroke-miterlimit:2;"/><path d="M2583.67,1965.95c0,-0 13.81,54.564 -16.177,72.903c-29.976,18.347 -75.073,12.142 -98.711,-14.31c-17.33,-19.414 -5.113,-53.317 -5.113,-53.317c0,0 -21.587,-11.831 -23.088,-32.143c-1.625,-21.819 18.799,-37.803 18.799,-37.803c-0,0 -15.938,-44.788 29.329,-68.95c36.305,-19.377 83.895,-9.704 102.016,4.12c16.86,12.879 38.561,53.947 30.715,84.43c-7.845,30.491 -37.77,45.07 -37.77,45.07" style="fill:#ff385c;fill-rule:nonzero;stroke:#0b0b0b;stroke-width:10.42px;stroke-miterlimit:2;"/><path d="M2474.8,1908.85c-0,0 9.706,13.282 26.347,14.068c16.642,0.785 39.605,-7.461 39.605,-7.461" style="fill:none;fill-rule:nonzero;stroke:#000;stroke-width:10.42px;stroke-linejoin:miter;stroke-miterlimit:10;"/><path d="M2479.04,1974.66c0,0 17.996,14.533 49.473,0.531" style="fill:none;fill-rule:nonzero;stroke:#000;stroke-width:10.42px;stroke-linejoin:miter;stroke-miterlimit:10;"/><path d="M2569.97,1897.89c-0,-0 -23.753,39.18 13.819,66.985" style="fill:none;fill-rule:nonzero;stroke:#000;stroke-width:10.42px;stroke-linejoin:miter;stroke-miterlimit:10;"/><path d="M3440.9,1955.88c4.288,-127.179 25.785,-159.065 25.785,-159.065c-40.926,1.065 -54.591,-0.245 -60.011,-2.205c-14.617,-5.307 -59.509,-86.686 -66.095,-106.998c-6.596,-20.31 47.87,-98.316 56.154,-105.047c8.276,-6.731 84.483,-3.74 84.483,-3.74c0,0 5.253,-10.222 12.095,-24.322c-30.309,-35.589 -63.356,-63.441 -85.158,-73.271c-46.388,-20.979 -122.672,-41.56 -136.206,-40.3c-11.248,1.051 -82.251,118.063 -84.471,125.736c-0.359,1.241 -0.678,2.567 -1.028,3.998l0.013,-0.038c-40.108,17.613 -93.291,35.503 -129.109,31.252c-36.354,-4.32 -70.12,-26.075 -93.264,-44.868c5.111,-5.043 9.849,-10.024 13.426,-14.422c15.332,-18.827 38.457,-51.008 38.457,-51.008c-0,-0 -81.689,13.076 -129.406,44.318c-90.112,58.98 -89.723,124.697 -76.539,139.435c13.195,14.755 54.327,13.48 54.327,13.48c-0,-0 11.434,110.331 14.527,190.283c1.911,49.533 -18.117,83.243 -12.58,166.317c79.729,52.548 156.936,23.918 246.378,17.127c127.275,-9.674 265.081,-70.985 328.222,-106.662" style="fill:#ff385c;fill-rule:nonzero;stroke:#d24d44;stroke-width:10.42px;stroke-linecap:butt;stroke-miterlimit:2;"/><path d="M3782.3,1279.24c-10.469,-24.862 -73.174,-35.955 -79.504,-46.386c-6.345,-10.475 16.664,-88.14 18.837,-103.009c3.065,-21.035 -3.911,-52.345 -22.649,-55.219c-18.729,-2.876 -37.725,29.597 -42.784,48.874c-5.059,19.277 -26.2,100.29 -38.945,100.402c-12.708,0.17 -43.784,-53.701 -54.057,-69.935c-7.023,-11.095 -35.188,-57.362 -59.281,-42.398c-24.068,14.951 -5.211,53.782 9.523,80.969c16.947,31.312 31.304,39.57 32.932,70.571c-32.727,16.324 -34.372,93.047 -31.787,108.554c4.346,25.99 9.645,20.356 18.914,40.376c11.241,24.225 -5.208,58.323 -5.208,58.323c0,0 49.51,36.482 76.686,42.675c46.254,10.554 96.254,-1.442 96.254,-1.442c0.682,-31.621 0.46,-53.795 7.7,-71.593c22.417,-55.086 30.561,-62.615 52.449,-72.16c32.14,-14.005 28.182,-71.384 20.92,-88.602" style="fill:#ff385c;fill-rule:nonzero;stroke:#0b0b0b;stroke-width:10.42px;stroke-linecap:butt;stroke-miterlimit:2;"/><path d="M3626.22,1348.33c0,-0 36.371,17.541 55.028,5.914c19.752,-12.292 21.803,-47.424 5.688,-57.947c-16.116,-10.533 -100.248,-51.291 -133.273,-37.123c-33.028,14.151 -37.865,57.381 -38.982,73.162c-1.104,15.806 -5.005,50.901 9.5,60.701c16.232,11.025 36.936,2.993 57.041,-6.062c22.056,-9.959 44.998,-38.645 44.998,-38.645" style="fill:#ff385c;fill-rule:nonzero;stroke:#000;stroke-width:10.42px;stroke-miterlimit:2;"/><path d="M3760.27,1264.56c0,0 -53.297,10.285 -46.182,57.395c4.98,32.92 52.321,38.327 52.321,38.327" style="fill:none;fill-rule:nonzero;stroke:#000;stroke-width:8.33px;stroke-linejoin:miter;stroke-miterlimit:10;"/><path d="M3719.01,1415.04c-0,0 -22.023,23.591 -52.204,28.989" style="fill:none;fill-rule:nonzero;stroke:#000;stroke-width:8.33px;stroke-linejoin:miter;stroke-miterlimit:10;"/><path d="M3498,2073.92c-2.505,-10.55 -10.001,-21.459 -15.204,-34.367c-3.31,-8.237 -15.902,-17.047 -15.902,-17.047c0,-0 -175.043,80.966 -330.201,93.049c-106.447,8.291 -226.527,-32.921 -279.572,-61.024c-1.135,3.25 -5.892,16.625 -6.042,19.771c-0.289,5.927 -0.245,6.365 -3.749,28.708c-1.497,9.559 -6.233,48.089 -8.835,55.753c-4.451,13.105 110.647,88.005 287.889,75.449c187.571,-13.295 349.485,-66.367 387.21,-117.852c-2.736,-9.754 -13.335,-32.917 -15.594,-42.44" style="fill:#f2f2f2;fill-rule:nonzero;stroke:#0b0b0b;stroke-width:10.42px;stroke-linecap:butt;stroke-miterlimit:2;"/><path d="M3447.89,1968.11c0.279,-1.992 -4.698,-30.372 -4.605,-32.456c0.456,-11.245 -4.61,-22.246 -2.776,-49.291c-61.558,34.806 -177.259,62.637 -301.136,74.36c-127.19,12.052 -223.251,-27.912 -264.784,-55.278c0,-0 -9.573,29.253 -14.453,53.065c-1.895,9.243 -1.579,35.556 0.446,45.857c46.322,27.582 173.848,66.179 289.373,55.248c112.869,-10.707 224.818,-54.585 297.935,-91.505" style="fill:#f2f2f2;fill-rule:nonzero;stroke:#0b0b0b;stroke-width:10.42px;stroke-linecap:butt;stroke-miterlimit:2;"/><path d="M3149.95,2059.61c-54.979,5.207 -112.676,-3.205 -163.046,-16.425c-55.47,-14.559 -102.054,-34.951 -126.332,-49.411c-3.704,7.576 3.495,20.344 3.186,33.839c42.047,27.338 153.344,71.857 279.022,59.967c126.239,-11.97 251.124,-67.722 311.83,-102.388c-0.692,-6.059 -12.088,-32.514 -10.537,-43.788c-73.117,36.919 -181.253,107.509 -294.123,118.206" style="fill:#d24d44;fill-rule:nonzero;stroke:#0b0b0b;stroke-width:10.42px;stroke-linecap:butt;stroke-miterlimit:2;"/><path d="M3455.66,1985.2c-48.361,27.618 -160.523,68.572 -258.608,90.146c2.152,-6.301 2.952,-12.845 2.012,-19.432c-4.411,-30.903 -20.661,-50.867 -64.675,-44.584c-44.014,6.282 -76.111,36.429 -71.7,67.332c0.465,3.258 1.384,6.387 2.6,9.374c-92.104,-7.025 -168.51,-38.959 -201.527,-60.43c-0.195,8.756 -4.35,18.601 -7.727,28.219c44.9,23.789 140.183,59.553 232.904,61.358c-21.996,48.232 -46.831,108.648 -55.62,152.761c-15.751,79.073 -25.425,139.696 -22.733,158.556c6.774,47.459 56.51,29.598 74.588,37.779c21.779,9.861 56.241,63.412 80.842,38.449c14.112,-14.32 -35.868,-103.928 -41.733,-157.801c-9.587,-87.981 17.494,-149.39 37.916,-181.994c5.942,32.211 12.061,69.545 12.679,89.401c1.509,48.246 -21.57,63.756 -17.254,70.769c7.129,11.579 23.657,-7.264 33.604,0.707c13.966,11.185 40.448,22.372 55.676,7.91c11.067,30.326 20.855,52.706 26.987,54.119c10.349,2.383 15.371,-22.565 24.877,-19.717c22.495,6.798 29.778,47.072 47.03,44.056c15.453,-2.705 -21.508,-139.936 -68.866,-218.547c-18.099,-30.021 -42.705,-61.348 -66.767,-88.102c97.899,-17.597 200.708,-50.426 259.026,-78.976c0.37,-0.906 -0.292,-10.639 -0.211,-11.658c0.768,-9.192 -12.167,-19.516 -13.32,-29.695" style="fill:#f2f2f2;fill-rule:nonzero;"/><path d="M2869.72,1953.81c32.739,22.574 105.706,49.656 157.628,52.835" style="fill:none;fill-rule:nonzero;stroke:#000;stroke-width:2.08px;stroke-linejoin:miter;stroke-miterlimit:10;"/><path d="M2862.04,2107.06c47.999,2.231 123.967,42.101 187.813,38.665" style="fill:none;fill-rule:nonzero;stroke:#000;stroke-width:2.08px;stroke-linejoin:miter;stroke-miterlimit:10;"/><path d="M2950.24,2182.26c18.118,15.578 49.905,15.581 74.7,14.313" style="fill:none;fill-rule:nonzero;stroke:#000;stroke-width:2.08px;stroke-linejoin:miter;stroke-miterlimit:10;"/><path d="M3485.72,2100.15c-65.169,36.548 -118.734,58.952 -194.39,69.751" style="fill:none;fill-rule:nonzero;stroke:#000;stroke-width:2.08px;stroke-linejoin:miter;stroke-miterlimit:10;"/><path d="M3426.86,1923.7c-21.223,13.056 -52.956,30.545 -91.004,51.779" style="fill:none;fill-rule:nonzero;stroke:#000;stroke-width:2.08px;stroke-linejoin:miter;stroke-miterlimit:10;"/><path d="M3074.82,1983.97c35.993,2.937 130.821,1.871 247.275,-33.287" style="fill:none;fill-rule:nonzero;stroke:#000;stroke-width:2.08px;stroke-linejoin:miter;stroke-miterlimit:10;"/><path d="M3700.62,1540.48l1.777,-83.055c0,0 -1.141,0.145 -3.163,0.361c-1.195,0.152 -2.707,0.314 -4.486,0.513c-16.614,1.826 -55.819,5.66 -72.726,3.396c-27.383,-3.702 -85.449,-29.308 -85.449,-29.308c0,-0 -10.533,50.791 -21.855,80.716c20.64,13.147 54.804,31.775 87.582,35.47c35.355,4 71.438,-1.468 98.32,-8.093" style="fill:#ff385c;fill-rule:nonzero;stroke:#0b0b0b;stroke-width:10.42px;stroke-linecap:butt;stroke-miterlimit:2;"/><g opacity="0.1"><path d="M3014.53,2632.61c0,-0 -94.33,-46.605 -125.257,-88.236c-30.933,-41.613 -57.969,-148.436 -57.969,-148.436c0,-0 26.918,47.517 54.52,66.236c33.94,23.038 45.701,22.912 45.701,22.912c0,0 -50.774,-63.284 -68.578,-127.958c-13.111,-47.635 -39.628,-102.847 -52.217,-94.393c-0.378,1.616 -0.774,3.235 -1.179,4.845c-0.117,0.517 -0.102,1.259 -0.17,1.868c-11.451,34.112 -21.047,66.079 -29.112,95.984c-19.006,43.164 -28.563,103.271 -31.089,144.11c-0.649,3.98 -1.284,7.994 -1.868,11.855c-14.129,93.491 -12.292,148.674 37.622,185.897c36.633,27.331 115.863,39.217 162.701,42.858c20.32,-5.125 34.747,-13.051 29.213,-14.659c-16.501,-4.765 -50.317,-25.15 -62.228,-32.25c15.871,5.699 67.613,1.066 67.613,1.066c-0,-0 -45.221,-21.836 -74.788,-48.913c-18.252,-16.712 -55.887,-61.31 -55.887,-61.31c0,0 39.073,16.493 78.359,28.114c38.404,11.365 84.613,10.41 84.613,10.41" style="fill:#0b0b0b;fill-rule:nonzero;"/></g><g opacity="0.1"><path d="M3171.95,2263.05c1.399,-5.213 2.303,-8.166 2.301,-8.184c-2.052,-2.668 -2.724,0.707 -2.301,8.184" style="fill:#fff;fill-rule:nonzero;"/><path d="M3571.54,2666.61c-56.268,35.277 -104.092,12.196 -117.95,12.203c16.55,-3.225 58.664,-33.703 58.664,-33.703c-0,0 -50.033,4.39 -89.291,-3.73c-24.231,-5.024 -79.381,-24.08 -79.381,-24.08c-0,-0 42.001,-5.814 81.699,-15.93c38.819,-9.909 78.021,-34.377 78.021,-34.377c-0,-0 -104.891,8.251 -152.766,-11.69c-47.883,-19.93 -103.028,-65.161 -125.776,-97.852c-25.287,-36.352 -50.876,-159.893 -52.805,-194.402c-10.489,38.879 -50.701,210.702 18.699,342.257c44.06,39.276 107.322,122.61 136.233,152.151c5,5.126 13.154,9.312 23.457,12.654c31.103,5.133 95.238,6.133 147.121,-18.002c68.508,-44.971 80.525,-89.562 74.075,-85.499" style="fill:#fff;fill-opacity:0.33;fill-rule:nonzero;"/></g><path d="M3447.89,1968.11c-48.361,27.619 -148.824,79.304 -246.909,100.878c2.142,-6.309 2.953,-12.846 2.013,-19.432c-4.413,-30.912 -43.662,-50.867 -87.675,-44.585c-44.023,6.284 -76.113,36.421 -71.701,67.333c0.465,3.258 1.384,6.387 2.6,9.374c-92.104,-7.025 -150.709,-41.5 -183.726,-62.971c-0.194,8.756 -0.983,26.197 -4.369,35.817c44.9,23.789 119.024,54.496 211.744,56.292c-21.995,48.241 -46.83,108.657 -55.619,152.77c-15.75,79.073 -25.425,139.696 -22.733,158.556c6.774,47.459 56.51,29.598 74.588,37.779c21.779,9.861 56.241,63.412 80.842,38.449c14.113,-14.321 -35.87,-103.937 -41.732,-157.801c-9.588,-87.981 17.484,-149.389 37.915,-181.994c5.942,32.211 12.061,69.545 12.679,89.401c1.51,48.246 -21.579,63.757 -17.254,70.769c7.129,11.579 23.648,-7.263 33.604,0.707c13.958,11.186 40.448,22.372 55.676,7.91c11.067,30.326 20.855,52.705 26.986,54.11c10.35,2.392 15.372,-22.556 24.878,-19.708c22.495,6.798 29.778,47.072 47.031,44.056c15.453,-2.705 -21.509,-139.936 -68.867,-218.547c-18.098,-30.021 -42.705,-61.348 -66.767,-88.102c97.899,-17.597 219.57,-55.716 277.886,-84.284c0.371,-0.897 3.328,-14.415 -3.12,-22.114c-6.898,-8.243 -16.817,-14.483 -17.97,-24.663" style="fill:#fff;fill-rule:nonzero;stroke:#0b0b0b;stroke-width:10.42px;stroke-linecap:butt;stroke-miterlimit:2;"/></g></svg>