<?xml version="1.0" encoding="UTF-8" standalone="no"?><!DOCTYPE svg PUBLIC "-//W3C//DTD SVG 1.1//EN" "http://www.w3.org/Graphics/SVG/1.1/DTD/svg11.dtd"><svg width="100%" height="100%" viewBox="0 0 3624 2907" version="1.1" xmlns="http://www.w3.org/2000/svg" xmlns:xlink="http://www.w3.org/1999/xlink" xml:space="preserve" xmlns:serif="http://www.serif.com/" style="fill-rule:evenodd;clip-rule:evenodd;stroke-linejoin:round;stroke-miterlimit:2;"><rect id="Green-Guy" serif:id="Green Guy" x="0" y="0" width="3623.94" height="2906.79" style="fill:none;"/><path d="M2709.61,131.856c5.458,-1.702 10.933,-3.348 16.429,-4.923c2.079,-0.596 4.16,-1.182 6.246,-1.755c0.787,-0.216 1.574,-0.43 2.362,-0.641c0.524,-0.14 1.047,-0.28 1.572,-0.416l-5.323,12.644l7.202,-3.601l-4.514,29.189l19.853,-9.929l-2.911,18.847l21.713,-14.426c-0.178,0.711 -0.352,1.423 -0.526,2.135c-0.259,1.057 -0.514,2.116 -0.768,3.175c-0.641,2.673 -1.269,5.35 -1.888,8.029c-1.641,7.101 -3.213,14.218 -4.721,21.348l-0.007,0.034l23.259,-15.453c-0,-0 -19.618,78.135 -21.552,126.11c-1.833,45.635 9.824,130.423 9.824,130.423c0,0 72.085,63.703 96.888,165.632c22.145,90.947 2.547,176.854 2.547,176.854c-0,-0 -7.655,-12.723 -17.902,-28.38c-1.364,8.399 -2.44,13.119 -2.44,13.119c-0,0 -27.229,-45.256 -47.725,-70.105c-6.259,6.411 38.44,94.753 29.791,176.518c-8.885,84.16 4.922,42.684 23.651,45.56c18.738,2.874 25.713,34.184 22.649,55.219c-2.174,14.869 -25.182,92.534 -18.837,103.009c6.329,10.431 69.035,21.524 79.504,46.386c7.262,17.218 11.219,74.597 -20.921,88.602c-21.887,9.545 -30.031,17.074 -52.448,72.16c-5.382,13.229 -6.641,28.877 -7.212,49.021l-1.101,51.463l-0.031,0.007l-0.074,15.465c-0,0 147.413,-41.114 290.1,0.75c389.45,114.237 293.449,485.299 293.077,482.691c0,-0 -1.005,-59.725 -24.158,-99.006c-18.425,-31.292 -60.106,-70.253 -75.117,-85.067c-2.756,-3.847 -4.819,-6.214 -5.522,-6.114c-0.499,0.072 1.679,2.349 5.522,6.114c6.973,9.786 18.5,29.392 24.285,44.723c8.067,21.4 22.067,66.991 22.067,66.991c0,0 -29.466,-31.078 -60.526,-46.861c-31.051,-15.775 -93.577,-23.825 -93.577,-23.825c0,-0 31.939,34.657 46.986,57.167c5.482,8.182 9.3,16.61 12.027,24.449c6.792,19.592 6.575,35.635 6.575,35.635c0,-0 -41.924,-39.209 -89.794,-23.612c-30.575,9.959 -55.171,23.051 -75.465,38.417l-0.007,-0.004l0.005,-0.004c-81.716,61.879 -92.631,161.277 -132.959,247.909l-0.007,-0.002l0.001,-0.004c-21.579,46.383 -51.562,89.116 -105.479,120.443c-130.941,75.998 -256.003,49.065 -310.184,29.234c0,0 200.971,5.585 195.127,100.872c23.959,61.322 35.417,116.185 19.14,161.308l-14.519,-34.251c0,0 47.555,95.204 29.938,153.119c-0.493,1.632 2.234,4.075 4.203,7.308l0.004,-0.001c12.755,20.83 46.079,72.064 25.961,92.546c-23.236,23.642 -235.521,2.183 -250.023,-8.68c-11.553,-8.659 1.238,-36.059 2.156,-47.061c22.606,0.913 22.602,0.907 -0.004,-0.006c0.248,-2.778 -0.253,-4.569 -2.138,-4.672c-8.856,-0.516 -99.085,-97.539 -111.609,-100.083l31.561,26.052c-3.17,-0.819 -6.315,-1.735 -9.414,-2.791c-2.574,-0.876 -5.117,-1.848 -7.602,-2.951c-2.164,-0.96 -4.286,-2.019 -6.329,-3.216c-1.893,-1.109 -3.72,-2.337 -5.42,-3.726l-0.011,-0.009c-0.656,-0.536 -1.292,-1.094 -1.901,-1.682c-0.143,-0.137 -0.284,-0.276 -0.424,-0.416c-0.173,-0.175 -0.345,-0.352 -0.517,-0.529c-0.377,-0.387 -0.753,-0.776 -1.128,-1.166c-1.334,-1.39 -2.65,-2.796 -3.957,-4.212l-0.17,-0.184c-1.98,-2.152 -3.937,-4.325 -5.879,-6.511c-1.776,-2 -3.538,-4.01 -5.293,-6.028c-1.936,-2.226 -3.861,-4.461 -5.78,-6.702c-2.146,-2.505 -4.283,-5.017 -6.415,-7.533c-4.703,-5.551 -9.384,-11.12 -14.063,-16.691c-5.119,-6.094 -10.236,-12.19 -15.37,-18.272l58.395,67.648c-28.91,-29.541 -92.173,-112.875 -136.232,-152.151l-0.022,-0.042c-10.354,-9.232 -19.646,-16.028 -27.18,-19.118c-57.256,-23.506 -137.203,157.633 -137.203,157.633c-26.428,31.395 -54.926,66.93 -59.852,67.406c-1.882,0.178 13.242,42.617 2.023,51.701c-14.063,11.426 -208.686,32.706 -237.155,32.953l-265.506,0c-38.954,1.482 -62.801,-7.593 -76.593,-21.583l-382.222,48.053l-46.431,-41.761l-2.624,0.33l-0.315,-2.974l-7.349,-6.609l5.809,-7.92l-7.499,-70.775l-0,86.941l-107.688,10.769l-19.309,5.941l-23.395,5.199c-69.564,1.238 -122.108,-8.541 -157.632,-29.336c-14.288,-8.363 -27.565,-20.191 -39.832,-35.485l-0.003,-0.001c-1.373,-0.595 -2.74,-1.206 -4.097,-1.837c-2.797,-1.3 -5.557,-2.678 -8.271,-4.14c-1.11,-0.598 -2.213,-1.21 -3.307,-1.837c-1.049,-0.601 -2.09,-1.215 -3.121,-1.846c-3.181,-1.945 -6.269,-4.04 -9.261,-6.263c-1.075,-0.798 -2.137,-1.613 -3.187,-2.444c-7.613,-6.023 -14.563,-12.859 -20.913,-20.196c-1.042,-1.203 -2.068,-2.42 -3.078,-3.65c-1.211,-1.474 -2.4,-2.967 -3.568,-4.476c-1.434,-1.852 -2.835,-3.73 -4.206,-5.63c-3.093,-4.285 -6.03,-8.683 -8.83,-13.166c-2.962,-4.742 -5.77,-9.581 -8.443,-14.491c-2.857,-5.249 -5.561,-10.581 -8.132,-15.976c-2.721,-5.71 -5.294,-11.492 -7.738,-17.326c-2.206,-5.268 -4.308,-10.58 -6.318,-15.926c-0.552,-1.469 -1.097,-2.941 -1.636,-4.415c-0.408,-1.118 -0.813,-2.237 -1.211,-3.359c-0.56,-1.58 -1.108,-3.163 -1.643,-4.751c-1.929,-5.725 -3.701,-11.503 -5.336,-17.319c-1.808,-6.433 -3.45,-12.912 -4.95,-19.423c-1.587,-6.888 -3.014,-13.812 -4.305,-20.761c-1.181,-6.35 -2.247,-12.721 -3.215,-19.107c-1.092,-7.211 -2.059,-14.441 -2.915,-21.684c-0.334,-2.82 -0.65,-5.642 -0.952,-8.466l-0.018,-0.166c-9.482,52.842 -23.407,97.575 -41.773,134.198c-20.795,41.466 -51.987,87.078 -93.577,136.838l-28.222,50.502l-113.258,42.703l-56.736,-50.78l-25.956,-100.649l-146.897,-433.838l92.011,-24.952l7.436,-11.369l7.954,7.195l2.143,-0.581l1.323,3.716l45.197,40.884l111.987,314.733l-23.34,20.545c45.303,-36.639 74.639,-76.867 88.007,-120.685c13.368,-43.818 18.443,-91.596 15.225,-143.336l0.678,44.914l-8.373,0.058l4.995,-44.954l-51.515,0.353l12.254,-110.287l128.414,-0.634l11.873,-6.558l7.17,6.464l2.935,-0.015c0.275,1.122 0.546,2.245 0.813,3.368l0.008,0.033l45.699,41.2c0.722,2.94 1.414,5.887 2.075,8.84l3.545,-38.587l107.312,-18.526l6.759,-8.339l56.59,51.151c-14.111,130.215 -16.029,217.48 -5.756,261.793c10.274,44.312 26.675,79.342 49.202,105.088c0,-0 16.865,-12.032 96.331,-25.4l-0.371,-380.249l100.096,5.867l7.679,-6.735l48.103,43.489l-0,-38.908l300.733,0l59.061,-9.723l56.513,51.155l15.222,0.573c-0.248,-32.183 15.348,-48.274 46.788,-48.274l257.337,-0c27.727,-0 12.753,1.473 12.753,1.473l1.039,-0.241c55.77,-2.673 75.297,20.405 81.913,47.12c0.146,-0.439 0.292,-0.877 0.44,-1.316l0.036,-0.107c1.664,-4.933 3.449,-9.826 5.386,-14.658c0.645,-1.608 1.307,-3.21 1.988,-4.804c0.218,-0.512 0.438,-1.022 0.66,-1.532c0.074,-0.169 0.148,-0.338 0.222,-0.507c0.019,-0.042 0.037,-0.084 0.056,-0.127c0.018,-0.042 0.042,-0.082 0.055,-0.126c0.037,-0.115 0.063,-0.234 0.095,-0.351c0.095,-0.351 0.19,-0.701 0.285,-1.052c0.254,-0.939 0.509,-1.878 0.765,-2.816c0.742,-2.723 1.492,-5.444 2.25,-8.163c2.336,-8.383 4.743,-16.747 7.214,-25.091l-10.609,37.48c8.065,-29.904 17.659,-61.88 29.111,-95.992c0.067,-0.609 0.052,-1.352 0.169,-1.868c0.061,-0.238 0.122,-0.477 0.181,-0.713c0.344,-1.375 0.679,-2.754 1.001,-4.131l0.012,-0.008l0.032,-0.136c0.38,-1.606 0.749,-3.214 1.109,-4.824c1.511,-6.76 2.88,-13.551 4.367,-20.316c0.821,-3.734 1.678,-7.462 2.609,-11.171c0.913,-3.634 1.898,-7.252 2.986,-10.838c1.246,-4.109 2.627,-8.177 4.177,-12.181c1.564,-4.043 3.3,-8.02 5.223,-11.906c2.087,-4.218 4.394,-8.329 6.915,-12.304c1.377,-2.172 2.817,-4.304 4.317,-6.393c0.869,-1.211 1.76,-2.408 2.668,-3.59l-0.008,-0.041c-0.663,-0.6 -1.313,-1.215 -1.945,-1.849c-0.452,-0.454 -0.894,-0.918 -1.322,-1.394c-0.615,-0.683 -1.204,-1.391 -1.74,-2.138c-0.332,-0.464 -0.644,-0.942 -0.918,-1.442c-0.205,-0.372 -0.389,-0.757 -0.535,-1.156c-0.04,-0.106 -0.076,-0.214 -0.109,-0.322c-0.026,-0.086 -0.05,-0.173 -0.072,-0.261c-0.111,-0.448 -0.162,-0.92 -0.08,-1.377c0.015,-0.082 0.034,-0.163 0.057,-0.242c0.015,-0.052 0.033,-0.104 0.05,-0.155c0.021,-0.063 0.042,-0.126 0.062,-0.19c0.082,-0.258 0.158,-0.517 0.23,-0.778c0.159,-0.574 0.3,-1.153 0.435,-1.734c0.205,-0.887 0.391,-1.778 0.569,-2.67c0.358,-1.791 0.68,-3.589 0.988,-5.388c0.483,-2.813 0.929,-5.631 1.359,-8.451c0.514,-3.363 1.004,-6.73 1.483,-10.098c0.651,-4.581 1.281,-9.164 1.909,-13.748c0.267,-1.95 0.533,-3.899 0.803,-5.848c0.208,-1.504 0.417,-3.008 0.635,-4.51c0.087,-0.601 0.175,-1.201 0.267,-1.801c0.05,-0.33 0.102,-0.659 0.154,-0.989c0.053,-0.338 0.106,-0.677 0.159,-1.016c0.125,-0.801 0.251,-1.602 0.376,-2.404c0.475,-3.045 0.948,-6.09 1.407,-9.138c0.279,-1.852 0.553,-3.705 0.808,-5.561c0.109,-0.789 0.214,-1.579 0.311,-2.37c0.107,-0.868 0.205,-1.737 0.287,-2.608c0.053,-0.567 0.098,-1.135 0.137,-1.703c0.042,-0.614 0.076,-1.228 0.107,-1.843c0.017,-0.335 0.033,-0.67 0.049,-1.005c0.005,-0.088 0.009,-0.177 0.013,-0.266c0.008,-0.164 0.014,-0.327 0.03,-0.491c0.029,-0.309 0.082,-0.616 0.141,-0.921c0.088,-0.455 0.193,-0.908 0.304,-1.358c0.135,-0.545 0.281,-1.087 0.433,-1.628c0.364,-1.303 0.76,-2.597 1.168,-3.887c0.439,-1.387 0.893,-2.77 1.355,-4.151c0.667,-1.99 1.353,-3.974 2.045,-5.955l0.021,-0.073c-0.132,-0.07 -0.265,-0.14 -0.397,-0.21c-0.044,-0.023 -0.109,-0.025 -0.132,-0.07c0,0 0.08,-0.225 0.08,-0.225c0.066,-0.188 0.132,-0.376 0.199,-0.564c0.308,-0.868 0.62,-1.734 0.933,-2.599c1.207,-3.335 2.436,-6.664 3.526,-10.04l0.035,-0.126c0.361,-2.608 0.641,-5.226 0.868,-7.848c0.228,-2.637 0.402,-5.278 0.535,-7.92c0.089,-1.746 0.159,-3.492 0.214,-5.238c0.017,-0.571 0.033,-1.142 0.048,-1.713c0.004,-0.178 0.009,-0.356 0.013,-0.534c0.001,-0.07 0.003,-0.139 0.005,-0.209c0,-0.034 -0.032,-0.107 0.002,-0.103c0.076,0.009 0.129,0.084 0.194,0.126c0.129,0.085 0.259,0.169 0.389,0.253l0.037,0.024c-0.098,-0.617 -0.204,-1.229 -0.316,-1.839l4.986,-3.595c-17.055,16.312 -95.54,23.136 -160.265,25.193c-42.436,1.348 -78.958,0.648 -88.377,-0.772l-0.005,0.004c-19.928,-3.009 -34.827,-1.439 -47.383,-2.33c0,-0 25.73,-15.26 -4.257,3.079c-29.977,18.347 -75.074,12.142 -98.712,-14.31c-17.329,-19.414 -5.112,-53.317 -5.112,-53.317c-0,0 -21.588,-11.831 -23.088,-32.143c-1.625,-21.819 18.798,-37.803 18.798,-37.803c0,0 -15.938,-44.788 29.33,-68.95c36.305,-19.377 83.895,-9.704 102.016,4.12c15.265,11.661 34.498,46.43 32.177,75.527c8.045,-0.555 18.166,-1.688 27.438,-3.986c0,0 3.712,-0.657 9.499,-1.728c4.997,16.688 5.615,24.877 5.615,24.877c-1.443,-9.504 -3.554,-18.005 -5.608,-24.874c22.177,-4.147 76.683,-14.996 87.058,-23.497c13.094,-10.706 57.101,-102.24 63.96,-206.573l-0.001,0.015c-0.289,-0.285 -0.569,-0.578 -0.837,-0.878c-13.183,-14.738 -131.852,-274.781 -134.91,-278.428c-2.219,7.644 -5.538,20.57 -7.228,34.476c-1.815,15.09 0.011,46.144 0.011,46.144c0,-0 -47.723,-53.112 -63.399,-86.013c-15.701,-32.942 -22.473,-69.877 -22.473,-69.877c-0.25,2.327 4.616,60.659 5.26,63.726c0.602,2.872 -92.698,-168.574 -111.335,-278.722c-19.735,-116.494 7.224,-200.65 17.537,-227.108c-1.91,-1.825 -3.713,-4.103 -5.306,-6.938c-0.082,-0.146 -0.165,-0.296 -0.245,-0.449c-6.478,-0.583 -16.554,-4.162 -23.1,-15.812c-10.315,-18.308 -13.609,-97.569 -28.754,-137.248l-95.647,-126.211c-1.851,-18.054 12.309,-21.547 12.309,-21.547l-35.063,-30.142l32.301,-4.611c-0,0 -37.817,-27.543 -37.097,-29.752c0.123,-0.383 1.629,-0.183 4.255,0.506c12.51,-3.624 108.046,-30.486 193.333,-31.049c75.036,-0.502 186.096,21.037 186.096,21.037c-0,0 93.27,-67.651 173.292,-94.312c92.282,-30.736 179.445,-20.472 179.445,-20.472c-0,-0 62.254,-34.189 139.138,-30.849c67.738,2.955 116.687,22.152 140.268,33.445c0,-0 65.573,-45.425 80.079,-54.643c50.158,-31.898 126.092,-53.598 142.289,-58.011l0.062,-0.073c0.659,-0.776 1.319,-1.552 1.98,-2.328c0.218,-0.256 0.437,-0.513 0.656,-0.77c0.073,-0.085 0.131,-0.186 0.218,-0.256c0.042,-0.033 0.103,-0.028 0.154,-0.042c0.101,-0.028 0.202,-0.056 0.302,-0.084c0.374,-0.103 0.748,-0.206 1.122,-0.308c0.751,-0.206 1.504,-0.41 2.256,-0.611c0.45,-0.121 0.901,-0.241 1.351,-0.358l-11.261,26.994Zm284.53,1977.61c-17.212,-6.746 -13.648,-5.868 -6.617,-2.759c2.182,0.965 4.385,1.883 6.606,2.755l0.011,0.004Z" style="fill:none;fill-rule:nonzero;stroke:#36e1b7;stroke-opacity:0.32;stroke-width:145.83px;"/><path d="M2790.67,164.73c5.458,-1.701 10.933,-3.347 16.429,-4.923c2.079,-0.596 4.16,-1.182 6.246,-1.754c0.787,-0.216 1.574,-0.43 2.362,-0.641c0.524,-0.141 1.047,-0.281 1.572,-0.416l-5.323,12.644l7.202,-3.601l-4.514,29.188l19.853,-9.928l-2.911,18.846l21.713,-14.425c-0.178,0.71 -0.353,1.422 -0.526,2.134c-0.259,1.058 -0.514,2.116 -0.768,3.175c-0.641,2.674 -1.269,5.351 -1.888,8.03c-1.641,7.101 -3.213,14.218 -4.721,21.348l-0.007,0.033l23.259,-15.453c-0,0 -19.618,78.136 -21.552,126.111c-1.833,45.635 9.824,130.423 9.824,130.423c0,-0 72.085,63.702 96.888,165.631c22.145,90.948 2.547,176.854 2.547,176.854c-0,0 -7.655,-12.723 -17.902,-28.38c-1.364,8.4 -2.44,13.12 -2.44,13.12c-0,-0 -27.229,-45.256 -47.726,-70.105c-6.258,6.41 38.441,94.752 29.792,176.517c-8.885,84.16 4.922,42.685 23.651,45.56c18.738,2.875 25.713,34.184 22.649,55.22c-2.174,14.868 -25.182,92.534 -18.837,103.008c6.329,10.431 69.035,21.525 79.504,46.387c7.262,17.218 11.219,74.596 -20.921,88.602c-21.887,9.545 -30.031,17.074 -52.448,72.159c-5.382,13.23 -6.641,28.877 -7.212,49.022l-1.102,51.462l-0.03,0.008l-0.074,15.465c-0,-0 147.413,-41.114 290.1,0.749c389.449,114.238 293.449,485.299 293.077,482.692c-0,-0 -1.005,-59.726 -24.158,-99.007c-18.425,-31.291 -60.106,-70.252 -75.117,-85.066c-2.756,-3.848 -4.819,-6.214 -5.522,-6.114c-0.499,0.071 1.679,2.349 5.522,6.114c6.973,9.785 18.5,29.392 24.284,44.723c8.068,21.399 22.068,66.991 22.068,66.991c0,-0 -29.466,-31.078 -60.527,-46.861c-31.05,-15.776 -93.576,-23.826 -93.576,-23.826c0,0 31.939,34.658 46.986,57.168c5.481,8.181 9.3,16.609 12.026,24.448c6.793,19.593 6.576,35.635 6.576,35.635c0,0 -41.924,-39.208 -89.794,-23.611c-30.575,9.958 -55.171,23.051 -75.465,38.417l-0.007,-0.004l0.005,-0.004c-81.716,61.878 -92.631,161.277 -132.96,247.908l-0.007,-0.002l0.002,-0.003c-21.579,46.383 -51.563,89.116 -105.479,120.443c-130.942,75.997 -256.004,49.064 -310.184,29.234c0,-0 200.971,5.585 195.127,100.872c23.959,61.322 35.417,116.184 19.14,161.307l-14.519,-34.25c-0,-0 47.555,95.203 29.938,153.118c-0.493,1.632 2.234,4.076 4.203,7.309l0.004,-0.002c12.755,20.83 46.078,72.065 25.961,92.546c-23.236,23.642 -235.521,2.184 -250.023,-8.679c-11.553,-8.659 1.238,-36.06 2.156,-47.062c22.606,0.913 22.601,0.908 -0.004,-0.006c0.248,-2.778 -0.253,-4.568 -2.139,-4.671c-8.856,-0.516 -99.084,-97.539 -111.608,-100.084l31.561,26.053c-3.17,-0.819 -6.315,-1.735 -9.414,-2.791c-2.574,-0.877 -5.117,-1.848 -7.602,-2.951c-2.164,-0.96 -4.286,-2.02 -6.329,-3.217c-1.893,-1.109 -3.72,-2.337 -5.42,-3.725l-0.012,-0.01c-0.655,-0.535 -1.291,-1.094 -1.9,-1.681c-0.143,-0.137 -0.284,-0.276 -0.424,-0.417c-0.173,-0.174 -0.345,-0.351 -0.517,-0.528c-0.377,-0.387 -0.753,-0.776 -1.128,-1.167c-1.334,-1.39 -2.65,-2.796 -3.957,-4.211l-0.17,-0.185c-1.981,-2.151 -3.938,-4.324 -5.879,-6.511c-1.776,-1.999 -3.538,-4.009 -5.293,-6.027c-1.936,-2.227 -3.861,-4.462 -5.78,-6.703c-2.146,-2.505 -4.283,-5.017 -6.415,-7.533c-4.703,-5.55 -9.384,-11.12 -14.063,-16.69c-5.119,-6.095 -10.237,-12.19 -15.37,-18.272l58.395,67.648c-28.91,-29.541 -92.173,-112.875 -136.232,-152.151l-0.022,-0.042c-10.354,-9.232 -19.646,-16.029 -27.18,-19.118c-57.257,-23.506 -137.204,157.633 -137.204,157.633c-26.427,31.394 -54.925,66.93 -59.851,67.406c-1.882,0.177 13.241,42.616 2.023,51.701c-14.063,11.425 -208.686,32.705 -237.155,32.953l-265.506,-0c-38.954,1.482 -62.801,-7.594 -76.593,-21.583l-382.222,48.053l-46.431,-41.762l-2.624,0.33l-0.315,-2.973l-7.349,-6.61l5.809,-7.92l-7.499,-70.774l-0,86.941l-107.688,10.768l-19.31,5.942l-23.394,5.199c-69.564,1.237 -122.108,-8.541 -157.633,-29.336c-14.288,-8.364 -27.564,-20.191 -39.832,-35.485l-0.002,-0.001c-1.373,-0.595 -2.74,-1.207 -4.097,-1.838c-2.797,-1.299 -5.557,-2.677 -8.271,-4.14c-1.11,-0.598 -2.213,-1.21 -3.307,-1.836c-1.049,-0.601 -2.09,-1.215 -3.122,-1.846c-3.18,-1.946 -6.268,-4.04 -9.26,-6.263c-1.075,-0.799 -2.137,-1.614 -3.187,-2.444c-7.613,-6.024 -14.563,-12.86 -20.913,-20.196c-1.042,-1.203 -2.068,-2.421 -3.078,-3.65c-1.211,-1.475 -2.4,-2.967 -3.568,-4.476c-1.434,-1.853 -2.835,-3.73 -4.206,-5.63c-3.093,-4.286 -6.03,-8.683 -8.83,-13.166c-2.962,-4.743 -5.77,-9.581 -8.443,-14.492c-2.858,-5.249 -5.561,-10.581 -8.132,-15.975c-2.721,-5.711 -5.294,-11.492 -7.738,-17.327c-2.206,-5.268 -4.308,-10.58 -6.318,-15.926c-0.552,-1.469 -1.098,-2.94 -1.636,-4.415c-0.409,-1.118 -0.814,-2.237 -1.211,-3.359c-0.56,-1.579 -1.108,-3.163 -1.643,-4.75c-1.929,-5.726 -3.701,-11.504 -5.336,-17.32c-1.809,-6.432 -3.451,-12.911 -4.95,-19.423c-1.587,-6.888 -3.014,-13.812 -4.306,-20.76c-1.18,-6.351 -2.246,-12.722 -3.214,-19.108c-1.092,-7.211 -2.059,-14.441 -2.915,-21.684c-0.334,-2.82 -0.65,-5.642 -0.952,-8.465l-0.018,-0.166c-9.483,52.841 -23.407,97.575 -41.773,134.197c-20.795,41.466 -51.987,87.079 -93.577,136.838l-28.222,50.502l-113.258,42.704l-56.736,-50.78l-25.956,-100.65l-146.897,-433.838l92.011,-24.952l7.436,-11.369l7.954,7.196l2.143,-0.582l1.323,3.717l45.197,40.884l111.987,314.732l-23.34,20.545c45.303,-36.638 74.639,-76.866 88.007,-120.684c13.368,-43.818 18.443,-91.597 15.225,-143.337l0.678,44.915l-8.373,0.057l4.995,-44.953l-51.515,0.353l12.254,-110.287l128.414,-0.635l11.873,-6.558l7.17,6.464l2.935,-0.014c0.275,1.122 0.546,2.244 0.813,3.368l0.008,0.032l45.699,41.2c0.722,2.941 1.414,5.888 2.074,8.841l3.546,-38.588l107.312,-18.526l6.759,-8.339l56.59,51.151c-14.111,130.216 -16.03,217.48 -5.756,261.793c10.274,44.313 26.675,79.343 49.202,105.089c0,-0 16.865,-12.032 96.331,-25.4l-0.371,-380.25l100.096,5.868l7.679,-6.735l48.103,43.489l-0,-38.908l300.733,-0l59.061,-9.723l56.513,51.154l15.222,0.573c-0.248,-32.182 15.348,-48.274 46.788,-48.274l257.337,0c27.727,0 12.753,1.474 12.753,1.474l1.039,-0.241c55.77,-2.674 75.297,20.404 81.913,47.12c0.146,-0.439 0.292,-0.878 0.44,-1.316l0.036,-0.107c1.664,-4.933 3.448,-9.826 5.386,-14.658c0.645,-1.609 1.307,-3.211 1.988,-4.805c0.218,-0.511 0.438,-1.021 0.66,-1.531c0.074,-0.169 0.148,-0.338 0.222,-0.507c0.019,-0.043 0.037,-0.085 0.056,-0.127c0.018,-0.042 0.041,-0.083 0.055,-0.126c0.037,-0.116 0.063,-0.234 0.095,-0.351c0.095,-0.351 0.189,-0.702 0.284,-1.053c0.255,-0.939 0.51,-1.877 0.766,-2.815c0.742,-2.723 1.492,-5.444 2.25,-8.163c2.336,-8.383 4.743,-16.747 7.214,-25.092l-10.609,37.481c8.064,-29.905 17.659,-61.881 29.111,-95.993c0.067,-0.609 0.052,-1.351 0.169,-1.867c0.061,-0.239 0.122,-0.477 0.181,-0.714c0.344,-1.374 0.678,-2.753 1,-4.13l0.013,-0.009l0.032,-0.136c0.38,-1.605 0.748,-3.213 1.109,-4.824c1.511,-6.759 2.88,-13.55 4.367,-20.315c0.821,-3.735 1.678,-7.462 2.609,-11.171c0.913,-3.635 1.898,-7.252 2.986,-10.839c1.246,-4.108 2.627,-8.176 4.177,-12.18c1.564,-4.043 3.3,-8.02 5.223,-11.906c2.087,-4.219 4.394,-8.329 6.915,-12.304c1.377,-2.172 2.817,-4.304 4.317,-6.393c0.869,-1.212 1.76,-2.408 2.668,-3.591l-0.008,-0.04c-0.663,-0.601 -1.313,-1.216 -1.945,-1.85c-0.452,-0.453 -0.894,-0.917 -1.323,-1.393c-0.615,-0.683 -1.203,-1.392 -1.739,-2.139c-0.332,-0.463 -0.644,-0.942 -0.918,-1.441c-0.205,-0.373 -0.389,-0.757 -0.536,-1.156c-0.039,-0.107 -0.075,-0.214 -0.108,-0.323c-0.026,-0.086 -0.05,-0.173 -0.072,-0.26c-0.111,-0.448 -0.162,-0.92 -0.08,-1.378c0.015,-0.081 0.033,-0.162 0.057,-0.241c0.015,-0.053 0.033,-0.104 0.05,-0.156c0.021,-0.063 0.042,-0.126 0.062,-0.189c0.082,-0.258 0.158,-0.518 0.23,-0.778c0.159,-0.575 0.3,-1.154 0.435,-1.734c0.205,-0.887 0.391,-1.778 0.569,-2.671c0.358,-1.791 0.68,-3.588 0.988,-5.388c0.482,-2.812 0.928,-5.63 1.359,-8.451c0.514,-3.363 1.004,-6.729 1.483,-10.097c0.651,-4.581 1.281,-9.165 1.909,-13.749c0.267,-1.949 0.533,-3.899 0.803,-5.848c0.208,-1.504 0.417,-3.007 0.635,-4.51c0.087,-0.6 0.175,-1.201 0.267,-1.801c0.05,-0.329 0.102,-0.659 0.154,-0.988c0.053,-0.339 0.106,-0.677 0.159,-1.016c0.125,-0.801 0.251,-1.603 0.376,-2.404c0.475,-3.045 0.948,-6.091 1.407,-9.139c0.279,-1.852 0.553,-3.705 0.808,-5.56c0.109,-0.79 0.214,-1.58 0.311,-2.371c0.107,-0.868 0.205,-1.737 0.287,-2.607c0.053,-0.567 0.098,-1.135 0.137,-1.703c0.042,-0.614 0.076,-1.229 0.107,-1.844c0.017,-0.334 0.033,-0.669 0.049,-1.004c0.005,-0.089 0.009,-0.178 0.013,-0.266c0.008,-0.164 0.014,-0.328 0.03,-0.491c0.029,-0.309 0.082,-0.616 0.141,-0.921c0.087,-0.456 0.192,-0.908 0.304,-1.359c0.135,-0.545 0.281,-1.087 0.432,-1.627c0.365,-1.303 0.761,-2.597 1.169,-3.887c0.439,-1.388 0.893,-2.771 1.355,-4.151c0.667,-1.99 1.352,-3.974 2.045,-5.956l0.021,-0.073c-0.133,-0.07 -0.265,-0.139 -0.397,-0.209c-0.044,-0.024 -0.109,-0.026 -0.132,-0.07c0,-0 0.079,-0.226 0.08,-0.226c0.066,-0.188 0.132,-0.376 0.199,-0.564c0.308,-0.867 0.62,-1.733 0.933,-2.599c1.207,-3.335 2.436,-6.663 3.526,-10.039l0.035,-0.127c0.361,-2.607 0.641,-5.225 0.868,-7.848c0.228,-2.636 0.402,-5.277 0.535,-7.92c0.089,-1.745 0.159,-3.491 0.214,-5.238c0.017,-0.571 0.033,-1.141 0.048,-1.712c0.004,-0.178 0.009,-0.356 0.013,-0.535c0.001,-0.069 0.003,-0.139 0.004,-0.208c0.001,-0.034 -0.031,-0.107 0.003,-0.103c0.076,0.009 0.129,0.084 0.193,0.126c0.13,0.084 0.26,0.169 0.39,0.253l0.036,0.024c-0.097,-0.617 -0.203,-1.23 -0.315,-1.839l4.986,-3.595c-17.055,16.311 -95.54,23.135 -160.265,25.192c-42.436,1.349 -78.958,0.648 -88.377,-0.771l-0.005,0.004c-19.928,-3.009 -34.827,-1.44 -47.383,-2.331c0,0 25.73,-15.259 -4.257,3.08c-29.977,18.347 -75.074,12.141 -98.712,-14.31c-17.329,-19.414 -5.112,-53.317 -5.112,-53.317c-0,-0 -21.588,-11.832 -23.088,-32.143c-1.625,-21.819 18.798,-37.803 18.798,-37.803c0,-0 -15.938,-44.789 29.33,-68.951c36.305,-19.377 83.895,-9.704 102.016,4.121c15.265,11.66 34.498,46.429 32.177,75.526c8.045,-0.555 18.165,-1.687 27.438,-3.985c0,-0 3.712,-0.657 9.499,-1.728c4.997,16.687 5.615,24.877 5.615,24.877c-1.443,-9.504 -3.554,-18.006 -5.608,-24.875c22.177,-4.146 76.683,-14.996 87.058,-23.497c13.094,-10.706 57.1,-102.24 63.96,-206.572l-0.001,0.015c-0.29,-0.286 -0.569,-0.579 -0.837,-0.878c-13.184,-14.739 -142.127,-197.809 -142.127,-197.809c0,0 -47.723,-53.111 -63.399,-86.012c-15.701,-32.943 -22.474,-69.878 -22.474,-69.878c-0.249,2.327 -0.873,21.635 -0.68,24.409c0.215,3.084 8.748,51.836 9.23,53.792c0.185,0.754 -8.103,-17.45 -10.295,-22.643c-2.584,-6.119 -5.137,-12.25 -7.664,-18.393c-3.955,-9.617 -7.843,-19.262 -11.663,-28.933l-0.014,-0.034c1.634,25.653 10.025,57.648 10.025,57.648c0,-0 -76.376,-170.694 -95.013,-280.841c-19.735,-116.494 7.224,-200.65 17.537,-227.108c-1.91,-1.825 -3.713,-4.103 -5.306,-6.938c-0.083,-0.146 -0.165,-0.297 -0.246,-0.45c-6.478,-0.582 -16.553,-4.162 -23.099,-15.811c-10.315,-18.308 -13.609,-97.569 -28.754,-137.248l-95.647,-126.211c-1.851,-18.055 12.309,-21.547 12.309,-21.547l-35.063,-30.143l32.3,-4.61c0,-0 -37.816,-27.543 -37.096,-29.753c0.123,-0.383 1.629,-0.183 4.255,0.507c12.51,-3.625 108.046,-30.487 193.333,-31.049c75.036,-0.502 186.096,21.037 186.096,21.037c-0,-0 93.27,-67.651 173.292,-94.312c92.282,-30.737 179.445,-20.473 179.445,-20.473c-0,0 62.254,-34.188 139.138,-30.849c67.738,2.956 116.687,22.153 140.268,33.445c0,0 65.573,-45.424 80.079,-54.642c50.158,-31.898 126.092,-53.598 142.289,-58.012l0.061,-0.073c0.66,-0.776 1.32,-1.552 1.98,-2.327c0.219,-0.257 0.438,-0.513 0.657,-0.77c0.072,-0.085 0.13,-0.186 0.218,-0.256c0.042,-0.033 0.103,-0.029 0.154,-0.043c0.101,-0.028 0.201,-0.055 0.302,-0.083c0.374,-0.104 0.748,-0.206 1.122,-0.309c0.751,-0.205 1.504,-0.409 2.256,-0.611c0.45,-0.12 0.9,-0.24 1.351,-0.357l-11.261,26.993Zm284.53,1977.61c-17.212,-6.747 -13.648,-5.868 -6.618,-2.76c2.183,0.966 4.386,1.883 6.607,2.756l0.011,0.004Z" style="fill:none;fill-rule:nonzero;stroke:#ff385c;stroke-opacity:0.23;stroke-width:104.17px;"/><g><path d="M2863.89,2686.85c-1.969,-3.233 -4.697,-5.678 -4.204,-7.31c17.617,-57.915 -29.938,-153.118 -29.938,-153.118c-37.145,36.398 -92.928,134.89 -301.512,92.469c12.524,2.544 102.753,99.567 111.609,100.083c1.885,0.104 2.386,1.894 2.138,4.672c35.36,1.428 77.189,0.644 112.489,-4.395c30.752,-4.389 73.512,-18.757 109.418,-32.401" style="fill:#fff;fill-rule:nonzero;stroke:#000;stroke-width:10.42px;"/><path d="M2754.47,2719.24c-35.309,5.04 -77.128,5.832 -112.488,4.404c-0.918,11.002 -13.709,38.403 -2.156,47.062c14.502,10.863 226.787,32.321 250.023,8.679c20.117,-20.482 -13.206,-71.716 -25.961,-92.546c-35.906,13.644 -78.666,28.012 -109.418,32.401" style="fill:#55bea9;fill-rule:nonzero;stroke:#000;stroke-width:10.42px;"/><path d="M2181.73,2608.25c-17.469,-5.825 -145.833,4.177 -195.748,-33.046c-24.353,-18.166 -14.359,-54.468 -18.408,-94.486c-0.114,-0.093 -0.241,-0.22 -0.346,-0.323c-0,-0 -40.27,115.295 -20.42,172.476c0.547,1.602 -2.068,4.155 -3.911,7.469c36.391,12.207 79.702,24.925 110.597,28.099c35.48,3.663 77.292,2.827 112.564,0.008c-0.339,-2.758 0.083,-4.571 1.965,-4.749c8.081,-0.781 79.593,-95.905 101.343,-112.332c-39.845,23.851 -73.666,41.538 -87.636,36.884" style="fill:#fff;fill-rule:nonzero;stroke:#000;stroke-width:10.42px;"/><path d="M2980.95,2110.85c-41.929,-41.024 -151.803,-197.418 -255.535,-158.717c43.162,-73.586 -118.339,-187.9 -191.969,-276.23c-74.159,81.225 -115.669,149.334 -115.669,149.334c-0,0 158.037,453.432 212.216,473.253c54.181,19.831 179.242,46.764 310.184,-29.233c53.916,-31.328 83.9,-74.06 105.479,-120.444c-23.365,-7.236 -46.369,-20.019 -64.706,-37.963" style="fill:#55bea9;fill-rule:nonzero;stroke:#000;stroke-width:10.42px;"/><path d="M2991.37,1705.31c-57.724,28.574 -174.996,-95.786 -262.994,-196.596c-78.316,50.131 -144.264,111.702 -194.932,167.187c73.639,88.329 235.131,202.644 191.978,276.228c103.724,-38.699 213.606,117.694 255.526,158.719c18.346,17.943 41.35,30.726 64.716,37.971c40.329,-86.632 51.244,-186.03 132.96,-247.908c-87.937,-58.061 -196.192,-113.976 -187.254,-195.601" style="fill:#fff;fill-rule:nonzero;stroke:#000;stroke-width:10.42px;"/><path d="M3192.25,1429.21c-142.687,-41.864 -272.404,-17.863 -383.158,34.573c-28.167,13.339 -55.098,28.526 -80.712,44.924c87.999,100.81 205.27,225.17 262.995,196.596c-8.938,81.625 99.317,137.54 187.255,195.61c20.294,-15.367 44.89,-28.459 75.465,-38.417c47.87,-15.597 89.794,23.611 89.794,23.611c0,-0 0.217,-16.043 -6.575,-35.635c-2.727,-7.839 -6.545,-16.267 -12.027,-24.448c-15.047,-22.51 -46.986,-57.168 -46.986,-57.168c0,0 62.526,8.05 93.576,23.825c31.061,15.784 60.527,46.861 60.527,46.861c0,0 -14,-45.591 -22.067,-66.99c-5.785,-15.331 -17.312,-34.938 -24.285,-44.723c-3.843,-3.766 -6.021,-6.043 -5.522,-6.114c0.703,-0.101 2.766,2.266 5.522,6.114c15.011,14.813 56.692,53.775 75.117,85.066c23.153,39.281 24.158,99.006 24.158,99.006c0.372,2.608 96.373,-368.454 -293.077,-482.691" style="fill:#55bea9;fill-rule:nonzero;stroke:#0b0b0b;stroke-width:10.42px;"/><path d="M2825.12,2399.36c5.844,-95.287 -34.946,-203.153 -55.362,-269.453c-17.753,-57.635 -36.862,-99.182 -53.407,-136.645l-54.994,32.879c-4.404,-12.849 -8.242,-24.335 -10.383,-31.258c-0.362,-1.266 -0.784,-2.568 -1.138,-3.834c-55.996,33.622 -186.051,90.82 -327.928,104.259c-147.451,13.971 -237.926,-30.059 -272.936,-56.522c-27.535,33.992 -29.453,68.659 -37.799,101.301c-0.117,0.516 -0.102,1.259 -0.169,1.868c-11.452,34.112 -21.046,66.088 -29.111,95.993c-19.007,43.155 -28.565,103.261 -31.09,144.109c-0.65,3.971 -1.285,7.985 -1.869,11.847c-14.129,93.491 -12.29,148.683 37.623,185.897c49.917,37.241 178.983,45.838 197.299,43.914c216.606,-22.525 123.965,-188.563 181.222,-165.058c39.59,16.237 127.721,134.83 163.434,171.31c35.697,36.491 226.818,27.321 279.246,-17.68c60.217,-51.644 51.419,-125.76 17.362,-212.927" style="fill:#55bea9;fill-rule:nonzero;stroke:#000;stroke-width:10.42px;"/><path d="M2803.8,1420.21c-32.913,-4.648 -64.129,-26.412 -85.027,-41.366c-1.511,4.62 -36.376,72.263 -36.376,72.263c0,-0 -76.205,-2.974 -84.483,3.739c-8.267,6.729 -62.75,84.737 -56.155,105.047c6.596,20.311 51.472,101.71 66.104,106.997c14.607,5.298 229.732,3.256 261.051,-26.172c31.322,-29.41 33.788,-96.315 32.768,-116.504l0.535,-111.422c-26.837,6.937 -62.916,12.441 -98.417,7.418" style="fill:#fff;fill-rule:nonzero;stroke:#000;stroke-width:10.42px;"/><path d="M2652.09,1500.65l31.087,-46.014" style="fill:none;fill-rule:nonzero;stroke:#020202;stroke-width:2.08px;stroke-linejoin:miter;stroke-miterlimit:10;"/><path d="M2122.21,1149.93c3.603,25.242 -13.942,48.608 -39.184,52.211c-25.242,3.603 -48.623,-13.921 -52.226,-39.164c-3.606,-25.26 13.939,-48.625 39.181,-52.228c25.242,-3.603 48.623,13.921 52.229,39.181" style="fill:#020202;fill-rule:nonzero;"/><path d="M2088.39,1133.91c-0,-0 -25.542,-7.916 -34.22,9.298c-8.943,17.706 4.757,33.324 4.757,33.324" style="fill:none;fill-rule:nonzero;stroke:#fff;stroke-width:12.5px;stroke-linecap:round;stroke-linejoin:miter;stroke-miterlimit:10;"/><path d="M2471.72,1100.04c3.602,25.243 -13.942,48.608 -39.184,52.211c-25.234,3.602 -48.615,-13.922 -52.218,-39.165c-3.605,-25.26 13.939,-48.625 39.173,-52.227c25.242,-3.603 48.623,13.921 52.229,39.181" style="fill:#020202;fill-rule:nonzero;"/><path d="M2437.91,1084.03c0,-0 -25.542,-7.916 -34.228,9.299c-8.935,17.705 4.756,33.324 4.756,33.324" style="fill:none;fill-rule:nonzero;stroke:#fff;stroke-width:12.5px;stroke-linecap:round;stroke-linejoin:miter;stroke-miterlimit:10;"/><path d="M1792.94,1275.25c-0,0 -76.377,-170.693 -95.014,-280.841c-24.052,-141.979 21.254,-235.924 21.254,-235.924c0,0 -19.077,4.93 -29.365,-13.382c-10.315,-18.309 -13.609,-97.57 -28.754,-137.249c-28.081,-73.616 -94.546,-115.379 -95.647,-126.211c-1.851,-18.054 12.3,-21.545 12.3,-21.545l-35.054,-30.144l32.292,-4.609l-37.21,-29.846c0,0 103.246,-30.848 194.707,-31.451c75.037,-0.502 186.096,21.037 186.096,21.037c0,-0 93.271,-67.651 173.292,-94.312c92.282,-30.736 179.445,-20.473 179.445,-20.473c-0,0 62.254,-34.188 139.138,-30.848c67.738,2.955 116.687,22.152 140.268,33.444c0,0 65.574,-45.424 80.079,-54.642c56.402,-35.868 145.396,-58.843 145.396,-58.843l-19.682,46.758l36.9,-18.454l-7.981,51.68l42.132,-27.992c-0,0 -19.618,78.135 -21.552,126.11c-1.833,45.636 9.824,130.424 9.824,130.424c0,-0 72.085,63.702 96.888,165.631c22.145,90.947 2.547,176.854 2.547,176.854c-0,0 -56.128,-93.289 -67.872,-85.528c-7.325,4.86 38.329,94.122 29.596,176.68c-8.885,84.16 -77.011,138.422 -77.011,138.422c-0,0 20.292,-108.847 13.927,-163.938c-13.182,-113.733 -38.052,-105.488 -38.052,-105.488c-3.4,-9.123 24.299,27.711 17.156,139.031c-6.083,95.076 -115.769,208.7 -115.769,208.7c0,-0 0.204,-34.459 -7.179,-55.384c-7.377,-20.889 -23.977,-50.016 -23.977,-50.016c0,-0 1.109,31.501 -6.884,59.552c-7.982,28.068 -25.082,52.641 -26.159,52.795c-0,0 -11.265,-109.465 -28.227,-151.945c-27.41,-68.599 -93.414,-115.141 -93.414,-115.141l53.475,225.566c0,-0 -63.459,-172.583 -87.126,-215.341c-23.695,-42.755 -68.114,-130.114 -76.836,-125.936c-11.878,5.674 5.663,89.749 2.087,156.386c-4.229,78.227 -42.169,151.049 -42.169,151.049l-28.603,-46.477l-40.304,133.192c0,-0 -53.823,-38.454 -73.52,-68.602c-19.671,-30.151 -47.665,-92.79 -56.069,-90.137c-7.889,2.506 0.043,52.034 6.114,78.976c6.521,28.886 24.325,86.94 19.294,88.793c-8.528,3.116 -49.004,-97.022 -64.68,-145.316c-15.684,-48.294 -42.23,-172.68 -42.23,-172.68c0,0 -50.203,115.505 -65.899,205.651c-15.702,90.1 7.82,208.387 7.82,208.387c0,0 -31.292,-19.755 -61.204,-49.125c-28.489,-27.984 -48.29,-76.617 -48.29,-76.617c-0,0 -6.216,55.716 2.146,97.117c12.497,61.917 55.461,101.213 50.738,104.076c-0,0 -23.268,-4.008 -40.593,-22.751c-9.271,-10.047 -26.559,-32.092 -26.559,-32.092c0,-0 -6.769,19.575 -9.446,41.609c-1.815,15.09 0.011,46.144 0.011,46.144c0,-0 -27.381,-37.851 -43.057,-70.752c-15.7,-32.943 -35.061,-122.452 -35.061,-122.452c0,-0 -6.736,17.772 -8.612,47.384c-1.658,26.056 10.139,71.036 10.139,71.036" style="fill:#fff;fill-rule:nonzero;"/><path d="M1772.6,1259.99c-0,-0 -76.377,-170.694 -95.014,-280.842c-24.052,-141.979 21.254,-235.923 21.254,-235.923c-0,-0 -19.077,4.929 -29.365,-13.383c-10.315,-18.308 -13.609,-97.569 -28.754,-137.248c-28.081,-73.616 -94.547,-115.379 -95.648,-126.211c-1.85,-18.054 12.301,-21.546 12.301,-21.546l-35.054,-30.144l32.291,-4.609l-37.209,-29.845c-0,-0 103.246,-30.848 194.707,-31.451c75.036,-0.502 186.096,21.036 186.096,21.036c-0,0 93.27,-67.65 173.292,-94.312c92.282,-30.736 179.445,-20.472 179.445,-20.472c-0,-0 62.254,-34.188 139.138,-30.849c67.738,2.956 116.687,22.152 140.268,33.445c0,-0 65.573,-45.424 80.079,-54.642c56.402,-35.869 145.396,-58.843 145.396,-58.843l-19.683,46.757l36.9,-18.454l-7.981,51.681l42.132,-27.992c0,-0 -19.617,78.135 -21.552,126.11c-1.832,45.635 9.825,130.423 9.825,130.423c-0,0 72.085,63.702 96.888,165.632c22.145,90.947 2.547,176.854 2.547,176.854c-0,-0 -56.129,-93.29 -67.872,-85.529c-7.326,4.86 38.328,94.123 29.596,176.681c-8.885,84.159 -77.012,138.422 -77.012,138.422c0,-0 20.293,-108.848 13.928,-163.939c-13.182,-113.733 -38.052,-105.487 -38.052,-105.487c-3.4,-9.124 24.299,27.71 17.157,139.04c-6.084,95.067 -115.77,208.69 -115.77,208.69c-0,0 0.204,-34.459 -7.179,-55.383c-7.377,-20.89 -23.977,-50.017 -23.977,-50.017c0,0 1.109,31.502 -6.885,59.553c-7.982,28.067 -25.081,52.641 -26.158,52.795c-0,-0 -11.265,-109.466 -28.227,-151.946c-27.411,-68.598 -93.414,-115.141 -93.414,-115.141l53.475,225.566c0,0 -63.459,-172.582 -87.126,-215.341c-23.695,-42.754 -68.114,-130.113 -76.836,-125.935c-11.878,5.673 5.662,89.748 2.086,156.385c-4.228,78.228 -42.168,151.05 -42.168,151.05l-28.603,-46.477l-40.304,133.191c-0,0 -53.823,-38.454 -73.52,-68.601c-19.671,-30.151 -47.666,-92.79 -56.069,-90.138c-7.889,2.507 0.043,52.034 6.114,78.977c6.52,28.885 24.325,86.939 19.294,88.793c-8.528,3.115 -49.004,-97.022 -64.681,-145.326c-15.684,-48.285 -42.229,-172.67 -42.229,-172.67c-0,-0 -50.203,115.505 -65.899,205.65c-15.703,90.101 7.819,208.379 7.819,208.379c-0,-0 -31.291,-19.746 -61.203,-49.117c-28.489,-27.984 -48.29,-76.616 -48.29,-76.616c-0,-0 -6.216,55.715 2.146,97.116c12.497,61.918 55.46,101.214 50.738,104.076c-0,0 -23.268,-4.008 -40.593,-22.75c-9.272,-10.048 -26.559,-32.093 -26.559,-32.093c0,0 -6.769,19.576 -9.446,41.609c-1.815,15.09 0.011,46.144 0.011,46.144c0,0 -27.381,-37.85 -43.057,-70.751c-15.701,-32.943 -35.061,-122.453 -35.061,-122.453c-0,0 -6.736,17.772 -8.613,47.384c-1.657,26.057 10.14,71.037 10.14,71.037" style="fill:#162f54;fill-rule:nonzero;stroke:#0b0b0b;stroke-width:1px;"/><path d="M1637.72,591.591c15.145,39.679 18.439,118.94 28.754,137.249c7.999,14.234 21.267,16.42 26.802,15.812c40.056,-56.278 92.648,-141.328 87.716,-183.773c-4.884,-41.852 -60.703,-80.739 -119.265,-119.18c-34.344,-22.553 -146.104,-65.798 -147.204,-62.371c-0.72,2.21 37.097,29.753 37.097,29.753l-32.301,4.61l35.063,30.143c0,-0 -14.16,3.492 -12.309,21.546" style="fill:#fff;fill-rule:nonzero;stroke:#fff;stroke-width:1px;"/><path d="M2800.47,448.674c-0,0 -11.659,-84.796 -9.825,-130.423c1.934,-47.984 21.542,-126.118 21.542,-126.118l-42.132,27.992l7.991,-51.673l-36.909,18.456l19.682,-46.757c0,-0 -1.874,0.485 -5.185,1.403c-37.243,43.669 -83.925,101.627 -106.183,141.922c-32.832,59.487 -57.677,134.655 -57.677,134.655c-0,-0 57.83,-18.227 130.877,0.991c20.932,5.522 54.639,21.327 85.691,37.175c-4.862,-4.919 -7.872,-7.623 -7.872,-7.623" style="fill:#fff;fill-rule:nonzero;stroke:#fff;stroke-width:1px;"/><path d="M2053.5,2688.44c35.479,3.664 77.29,2.818 112.564,0.008c1.346,10.961 15.204,37.864 3.985,46.949c-14.063,11.425 -225.347,41.137 -249.488,18.418c-20.898,-19.668 10.397,-72.17 22.342,-93.474c36.39,12.208 79.691,24.918 110.597,28.099" style="fill:#55bea9;fill-rule:nonzero;stroke:#000;stroke-width:10.42px;"/><path d="M1867.07,1848.71c4.73,-26.931 -0.599,-53.253 -5.596,-69.941c-5.787,1.071 -9.499,1.728 -9.499,1.728c-18.92,4.69 -41.367,4.525 -42.541,4.51c-0.027,5.472 -0.637,10.808 -2.104,15.804c-8.894,30.204 -39.311,43.746 -39.311,43.746c0,0 8.347,38.879 -7.219,61.535c15.211,4.767 32.976,0.443 59.968,4.519c18.229,-14.945 40.461,-28.699 46.302,-61.901" style="fill:#55bea9;fill-rule:nonzero;stroke:#000;stroke-width:10.42px;"/><path d="M2047.27,1514.81c-2.097,3.886 -33.917,20.898 -34.768,33.897c-6.86,104.333 -50.866,195.867 -63.96,206.573c-10.375,8.501 -64.881,19.351 -87.058,23.497c4.989,16.689 10.317,43.011 5.588,69.942c-5.842,33.202 -28.074,46.947 -46.303,61.891c9.404,1.421 45.935,2.122 88.384,0.773c64.725,-2.057 143.21,-8.881 160.265,-25.192c19.064,-18.261 48.886,-72.432 65.325,-122.186c-6.815,-24.521 -12.711,-46.421 -16.485,-67.261c-14.287,-78.718 2.126,-177.839 2.126,-177.839c0,0 -57.401,-33.103 -73.114,-4.095" style="fill:#fff;fill-rule:nonzero;stroke:#000;stroke-width:10.42px;"/><path d="M1785.31,1838.46c0,0 13.81,54.565 -16.177,72.904c-29.977,18.346 -75.074,12.141 -98.712,-14.31c-17.329,-19.415 -5.112,-53.318 -5.112,-53.318c-0,0 -21.588,-11.831 -23.088,-32.142c-1.625,-21.82 18.798,-37.804 18.798,-37.804c0,0 -15.938,-44.788 29.33,-68.95c36.305,-19.377 83.895,-9.704 102.016,4.121c16.86,12.878 38.561,53.947 30.714,84.429c-7.845,30.491 -37.769,45.07 -37.769,45.07" style="fill:#55bea9;fill-rule:nonzero;stroke:#000;stroke-width:10.42px;stroke-linecap:round;"/><path d="M1676.43,1781.36c0,-0 9.707,13.282 26.348,14.067c16.641,0.785 39.604,-7.46 39.604,-7.46" style="fill:none;fill-rule:nonzero;stroke:#000;stroke-width:10.42px;stroke-linecap:round;stroke-linejoin:miter;stroke-miterlimit:10;"/><path d="M1680.68,1847.16c0,-0 17.995,14.532 49.473,0.531" style="fill:none;fill-rule:nonzero;stroke:#000;stroke-width:10.42px;stroke-linecap:round;stroke-linejoin:miter;stroke-miterlimit:10;"/><path d="M1771.6,1770.4c-0,0 -23.754,39.18 13.818,66.985" style="fill:none;fill-rule:nonzero;stroke:#000;stroke-width:10.42px;stroke-linecap:round;stroke-linejoin:miter;stroke-miterlimit:10;"/><path d="M2642.54,1828.38c4.289,-127.179 25.785,-159.064 25.785,-159.064c-40.926,1.064 -54.591,-0.246 -60.011,-2.206c-14.616,-5.307 -59.508,-86.686 -66.095,-106.998c-6.595,-20.31 47.87,-98.315 56.155,-105.047c8.276,-6.73 84.483,-3.739 84.483,-3.739c-0,-0 5.252,-10.223 12.095,-24.323c-30.31,-35.589 -63.357,-63.44 -85.158,-73.271c-46.388,-20.979 -122.672,-41.559 -136.206,-40.3c-11.248,1.052 -82.252,118.063 -84.471,125.737c-0.359,1.241 -0.678,2.567 -1.028,3.997l0.013,-0.038c-40.108,17.613 -93.291,35.503 -129.109,31.252c-36.354,-4.32 -70.12,-26.074 -93.265,-44.867c5.111,-5.044 9.849,-10.025 13.427,-14.423c15.331,-18.826 38.456,-51.008 38.456,-51.008c0,0 -81.688,13.077 -129.405,44.318c-90.112,58.981 -89.723,124.697 -76.54,139.435c13.195,14.755 54.327,13.48 54.327,13.48c0,-0 11.434,110.331 14.527,190.284c1.912,49.533 -18.116,83.243 -12.58,166.316c79.73,52.548 156.937,23.918 246.379,17.128c127.275,-9.675 265.08,-70.986 328.221,-106.663" style="fill:#55bea9;fill-rule:nonzero;stroke:#000;stroke-width:10.42px;"/><path d="M2983.93,1151.75c-10.469,-24.861 -73.175,-35.955 -79.504,-46.386c-6.345,-10.474 16.663,-88.14 18.837,-103.009c3.064,-21.035 -3.911,-52.344 -22.649,-55.219c-18.729,-2.876 -37.725,29.597 -42.785,48.874c-5.059,19.277 -26.2,100.291 -38.944,100.402c-12.709,0.17 -43.784,-53.701 -54.057,-69.935c-7.024,-11.095 -35.188,-57.362 -59.281,-42.398c-24.068,14.951 -5.211,53.783 9.522,80.969c16.948,31.312 31.305,39.571 32.933,70.572c-32.727,16.323 -34.373,93.047 -31.787,108.553c4.345,25.99 9.644,20.357 18.914,40.376c11.241,24.225 -5.208,58.324 -5.208,58.324c0,-0 49.509,36.481 76.686,42.674c46.253,10.554 96.254,-1.441 96.254,-1.441c0.682,-31.621 0.459,-53.795 7.7,-71.594c22.417,-55.085 30.561,-62.614 52.448,-72.159c32.14,-14.006 28.183,-71.384 20.921,-88.603" style="fill:#55bea9;fill-rule:nonzero;stroke:#000;stroke-width:10.42px;"/><path d="M2827.85,1220.84c0,-0 36.371,17.541 55.028,5.914c19.751,-12.292 21.803,-47.423 5.688,-57.947c-16.117,-10.533 -100.248,-51.291 -133.274,-37.122c-33.027,14.15 -37.864,57.381 -38.981,73.161c-1.105,15.806 -5.005,50.902 9.499,60.702c16.232,11.024 36.937,2.992 57.042,-6.062c22.055,-9.96 44.998,-38.646 44.998,-38.646" style="fill:#55bea9;fill-rule:nonzero;stroke:#000;stroke-width:10.42px;stroke-linecap:round;"/><path d="M2961.9,1137.07c0,-0 -53.297,10.284 -46.183,57.395c4.981,32.919 52.322,38.327 52.322,38.327" style="fill:none;fill-rule:nonzero;stroke:#000;stroke-width:8.33px;stroke-linecap:round;stroke-linejoin:miter;stroke-miterlimit:10;"/><path d="M2920.64,1287.55c0,-0 -22.022,23.59 -52.203,28.988" style="fill:none;fill-rule:nonzero;stroke:#000;stroke-width:8.33px;stroke-linecap:round;stroke-linejoin:miter;stroke-miterlimit:10;"/><path d="M2699.64,1946.42c-2.505,-10.55 -10.002,-21.459 -15.204,-34.366c-3.31,-8.238 -15.902,-17.048 -15.902,-17.048c-0,-0 -175.043,80.966 -330.201,93.049c-106.448,8.292 -226.527,-32.921 -279.572,-61.024c-1.135,3.25 -5.892,16.626 -6.042,19.771c-0.29,5.927 -0.245,6.366 -3.75,28.708c-1.496,9.559 -6.232,48.089 -8.835,55.753c-4.45,13.105 110.648,88.005 287.889,75.449c187.572,-13.295 349.485,-66.367 387.211,-117.852c-2.737,-9.754 -13.336,-32.917 -15.594,-42.44" style="fill:#f2f2f2;fill-rule:nonzero;stroke:#0b0b0b;stroke-width:10.42px;"/><path d="M2649.52,1840.62c0.278,-1.992 -4.699,-30.371 -4.605,-32.455c0.456,-11.245 -4.611,-22.247 -2.777,-49.292c-61.557,34.807 -177.259,62.637 -301.135,74.361c-127.19,12.051 -223.251,-27.913 -264.784,-55.279c-0,-0 -9.573,29.253 -14.453,53.065c-1.895,9.243 -1.579,35.557 0.445,45.857c46.323,27.582 173.849,66.179 289.374,55.248c112.869,-10.706 224.818,-54.585 297.935,-91.505" style="fill:#f2f2f2;fill-rule:nonzero;stroke:#0b0b0b;stroke-width:10.42px;"/><path d="M2351.59,1932.12c-54.979,5.206 -112.677,-3.205 -163.047,-16.426c-55.47,-14.559 -102.053,-34.951 -126.331,-49.411c-3.705,7.576 3.494,20.344 3.186,33.839c42.047,27.339 153.344,71.857 279.022,59.967c126.239,-11.97 251.124,-67.721 311.83,-102.388c-0.692,-6.059 -12.088,-32.514 -10.537,-43.788c-73.117,36.919 -181.253,107.509 -294.123,118.207" style="fill:#55bea9;fill-rule:nonzero;stroke:#000;stroke-width:10.42px;"/><path d="M2657.29,1857.71c-48.361,27.619 -160.522,68.572 -258.608,90.146c2.153,-6.301 2.953,-12.845 2.013,-19.432c-4.411,-30.903 -20.661,-50.866 -64.675,-44.584c-44.014,6.282 -76.112,36.429 -71.701,67.333c0.465,3.257 1.384,6.387 2.601,9.373c-92.105,-7.024 -168.511,-38.959 -201.528,-60.429c-0.194,8.755 -4.35,18.6 -7.727,28.219c44.901,23.788 140.183,59.552 232.905,61.357c-21.997,48.232 -46.831,108.649 -55.62,152.761c-15.751,79.073 -25.426,139.696 -22.734,158.557c6.774,47.458 56.51,29.597 74.589,37.779c21.778,9.86 56.241,63.411 80.841,38.448c14.113,-14.32 -35.868,-103.928 -41.732,-157.801c-9.588,-87.98 17.494,-149.39 37.916,-181.994c5.941,32.211 12.06,69.546 12.678,89.402c1.51,48.246 -21.57,63.755 -17.254,70.768c7.13,11.579 23.658,-7.264 33.605,0.707c13.966,11.185 40.448,22.372 55.676,7.911c11.067,30.325 20.855,52.705 26.987,54.118c10.349,2.383 15.37,-22.565 24.877,-19.717c22.495,6.798 29.778,47.073 47.03,44.056c15.453,-2.705 -21.508,-139.935 -68.866,-218.547c-18.099,-30.021 -42.705,-61.347 -66.768,-88.101c97.899,-17.598 200.708,-50.427 259.027,-78.977c0.37,-0.906 -0.293,-10.638 -0.211,-11.658c0.768,-9.192 -12.167,-19.515 -13.321,-29.695" style="fill:#f2f2f2;fill-rule:nonzero;"/><path d="M2071.35,1826.32c32.738,22.573 105.706,49.655 157.627,52.834" style="fill:none;fill-rule:nonzero;stroke:#000;stroke-width:2.08px;stroke-linecap:round;stroke-linejoin:miter;stroke-miterlimit:10;"/><path d="M2063.67,1979.57c47.999,2.231 123.966,42.102 187.813,38.665" style="fill:none;fill-rule:nonzero;stroke:#000;stroke-width:2.08px;stroke-linecap:round;stroke-linejoin:miter;stroke-miterlimit:10;"/><path d="M2151.88,2054.76c18.117,15.578 49.905,15.582 74.699,14.313" style="fill:none;fill-rule:nonzero;stroke:#000;stroke-width:2.08px;stroke-linecap:round;stroke-linejoin:miter;stroke-miterlimit:10;"/><path d="M2687.35,1972.66c-65.169,36.548 -118.733,58.951 -194.389,69.75" style="fill:none;fill-rule:nonzero;stroke:#000;stroke-width:2.08px;stroke-linecap:round;stroke-linejoin:miter;stroke-miterlimit:10;"/><path d="M2628.49,1796.21c-21.223,13.056 -52.957,30.546 -91.004,51.779" style="fill:none;fill-rule:nonzero;stroke:#000;stroke-width:2.08px;stroke-linecap:round;stroke-linejoin:miter;stroke-miterlimit:10;"/><path d="M2276.45,1856.48c35.993,2.936 130.821,1.871 247.274,-33.288" style="fill:none;fill-rule:nonzero;stroke:#000;stroke-width:2.08px;stroke-linecap:round;stroke-linejoin:miter;stroke-miterlimit:10;"/><path d="M2902.25,1412.99l1.777,-83.055c-0,0 -1.142,0.145 -3.164,0.361c-1.195,0.153 -2.707,0.314 -4.486,0.513c-16.613,1.827 -55.818,5.661 -72.725,3.397c-27.384,-3.703 -85.449,-29.309 -85.449,-29.309c-0,0 -10.533,50.792 -21.856,80.716c20.64,13.148 54.805,31.776 87.582,35.471c35.355,3.999 71.439,-1.469 98.321,-8.094" style="fill:#55bea9;fill-rule:nonzero;stroke:#000;stroke-width:10.42px;"/><g opacity="0.1"><path d="M2216.16,2505.12c-0,0 -94.33,-46.604 -125.257,-88.236c-30.933,-41.612 -57.969,-148.436 -57.969,-148.436c0,0 26.917,47.517 54.519,66.237c33.94,23.037 45.702,22.911 45.702,22.911c-0,0 -50.774,-63.283 -68.579,-127.958c-13.111,-47.635 -39.628,-102.847 -52.217,-94.393c-0.377,1.616 -0.773,3.235 -1.179,4.846c-0.117,0.516 -0.102,1.259 -0.169,1.868c-11.452,34.111 -21.048,66.078 -29.113,95.983c-19.005,43.164 -28.563,103.271 -31.089,144.11c-0.649,3.98 -1.284,7.994 -1.868,11.855c-14.129,93.491 -12.292,148.675 37.623,185.898c36.633,27.33 115.862,39.217 162.7,42.858c20.321,-5.126 34.747,-13.052 29.214,-14.66c-16.501,-4.765 -50.317,-25.15 -62.229,-32.25c15.872,5.699 67.614,1.066 67.614,1.066c-0,-0 -45.221,-21.836 -74.788,-48.913c-18.252,-16.712 -55.887,-61.309 -55.887,-61.309c0,-0 39.073,16.492 78.358,28.113c38.405,11.366 84.614,10.41 84.614,10.41" style="fill:#0b0b0b;fill-rule:nonzero;"/></g><g opacity="0.1"><path d="M2373.58,2135.56c1.4,-5.213 2.304,-8.167 2.301,-8.185c-2.051,-2.668 -2.723,0.707 -2.301,8.185" style="fill:#fff;fill-rule:nonzero;"/><path d="M2773.17,2539.12c-56.268,35.277 -104.092,12.196 -117.95,12.204c16.55,-3.226 58.663,-33.703 58.663,-33.703c0,-0 -50.032,4.389 -89.29,-3.73c-24.231,-5.025 -79.381,-24.081 -79.381,-24.081c-0,0 42.001,-5.813 81.698,-15.93c38.819,-9.909 78.021,-34.377 78.021,-34.377c0,0 -104.891,8.251 -152.766,-11.689c-47.882,-19.931 -103.027,-65.162 -125.775,-97.853c-25.287,-36.351 -50.877,-159.893 -52.805,-194.401c-10.49,38.878 -50.702,210.701 18.699,342.257c44.059,39.275 107.322,122.61 136.232,152.15c5,5.126 13.154,9.312 23.458,12.655c31.103,5.133 95.238,6.132 147.12,-18.002c68.508,-44.972 80.525,-89.563 74.076,-85.5" style="fill:#fff;fill-opacity:0.33;fill-rule:nonzero;"/></g><path d="M2649.52,1840.62c-48.361,27.619 -148.824,79.304 -246.909,100.878c2.142,-6.309 2.952,-12.845 2.012,-19.432c-4.412,-30.912 -43.661,-50.867 -87.675,-44.584c-44.023,6.283 -76.113,36.42 -71.7,67.333c0.464,3.257 1.383,6.386 2.6,9.373c-92.105,-7.024 -150.709,-41.499 -183.726,-62.97c-0.195,8.755 -0.984,26.196 -4.37,35.816c44.901,23.789 119.024,54.496 211.745,56.292c-21.995,48.241 -46.83,108.658 -55.619,152.77c-15.751,79.073 -25.425,139.696 -22.733,158.557c6.774,47.458 56.509,29.597 74.588,37.779c21.778,9.86 56.241,63.411 80.841,38.448c14.113,-14.32 -35.869,-103.937 -41.732,-157.801c-9.588,-87.98 17.485,-149.388 37.916,-181.994c5.941,32.211 12.06,69.546 12.679,89.401c1.509,48.247 -21.579,63.757 -17.254,70.769c7.129,11.579 23.648,-7.262 33.604,0.707c13.957,11.186 40.448,22.372 55.676,7.911c11.067,30.325 20.855,52.705 26.986,54.109c10.35,2.392 15.371,-22.556 24.878,-19.708c22.495,6.798 29.778,47.073 47.03,44.056c15.453,-2.705 -21.508,-139.935 -68.866,-218.547c-18.099,-30.021 -42.705,-61.347 -66.767,-88.102c97.899,-17.597 219.57,-55.716 277.886,-84.283c0.371,-0.898 3.328,-14.416 -3.12,-22.115c-6.899,-8.242 -16.817,-14.483 -17.97,-24.663" style="fill:#fff;fill-rule:nonzero;stroke:#0b0b0b;stroke-width:10.42px;"/></g><g><path d="M323.3,2254.35l135.167,379.879c45.303,-36.639 74.639,-76.867 88.007,-120.685c13.368,-43.818 18.443,-91.597 15.225,-143.336l-54.215,0.371l12.254,-110.287l93.767,-51.793l56.625,51.05c14.11,57.434 16.462,117.281 7.055,179.542c-9.407,62.261 -24.508,114.124 -45.303,155.59c-20.795,41.466 -51.987,87.079 -93.577,136.838l-28.222,50.502l-113.258,42.704l-56.736,-50.781l-126.333,-489.887l52.927,-80.921l56.617,51.214Z" style="fill:#162f54;fill-rule:nonzero;stroke:#558897;stroke-width:1px;"/><path d="M846.411,2254.09c-14.111,130.216 -16.03,217.48 -5.756,261.793c10.274,44.313 26.675,79.342 49.202,105.088c22.528,25.746 73.525,31.935 152.991,18.567l-0.371,-380.249l51.115,-44.835l56.573,51.147l-0,486.452l-107.688,10.769l-19.309,5.942l-23.395,5.198c-69.564,1.238 -122.108,-8.54 -157.632,-29.335c-35.525,-20.795 -64.799,-63.004 -87.822,-126.626c-23.023,-63.623 -32.43,-155.467 -28.221,-275.533l6.312,-68.697l57.411,-70.832l56.59,51.151Z" style="fill:#162f54;fill-rule:nonzero;"/><path d="M1190.75,2260.47l310.739,-51.154l56.513,51.154l0,105.831l-212.033,0.372l-0,59.042l111.204,-50.586l56.64,50.957l-11.883,102.118l-155.961,0l-0,131.082l161.707,-76.355l56.639,51.104l31.192,112.144l-386.933,48.646l-56.719,-51.015l44.836,-61.129l43.818,-7.427l-0,-146.307l-46.046,-0l10.397,-95.434l36.392,-0.371l-0.372,-43.075l59.786,-21.909l-109.916,0.371l-0,-108.059Z" style="fill:#162f54;fill-rule:nonzero;"/><path d="M1676.67,2263.7l214.469,-49.705c96.122,-4.609 84.582,67.281 84.829,102.435l0.372,155.961c-1.238,17.825 -13.121,29.955 -35.649,36.392c23.518,1.485 35.153,12.625 34.906,33.42l-0.743,169.33c0.495,37.629 -13.492,56.567 -41.961,56.814l-265.506,0c-78.695,2.994 -95.734,-37.099 -92.763,-73.738l55.258,-66.998l90.235,-0.372l1.114,36.02l162.274,-0l0.743,-108.802l-140.366,0.371l-56.867,-51.104l57.239,-40.987l139.251,-0.372l0.743,-99.147l-163.389,0l-0.371,29.336l-90.606,0.371l-56.675,-51.198l56.675,-29.753c-0.248,-32.183 15.348,-48.274 46.788,-48.274Z" style="fill:#162f54;fill-rule:nonzero;"/><path d="M276.78,2209.75l135.167,379.878c45.303,-36.638 74.639,-76.867 88.007,-120.685c13.368,-43.817 18.443,-91.596 15.225,-143.336l-54.215,0.372l12.254,-110.288l150.392,-0.742c14.11,57.433 16.462,117.28 7.055,179.541c-9.407,62.261 -24.508,114.125 -45.303,155.591c-20.795,41.466 -51.987,87.078 -93.577,136.838l-53.473,-20.424l25.251,70.925l-113.258,42.704l-183.069,-540.667l109.544,-29.707Z" style="fill:#fff;fill-rule:nonzero;stroke:#162f54;stroke-width:23.33px;"/><path d="M789.751,2210.12c-14.111,130.216 -16.029,217.48 -5.756,261.793c10.274,44.313 26.675,79.343 49.202,105.089c22.528,25.746 73.525,31.935 152.991,18.567l-0.371,-380.25l107.688,6.313l-0,486.452l-107.688,10.769l0,-61.271l-19.309,67.212l-23.395,5.199c-69.564,1.237 -122.108,-8.541 -157.632,-29.336c-35.525,-20.795 -64.799,-63.004 -87.822,-126.626c-23.023,-63.623 -32.43,-155.467 -28.221,-275.532l6.312,-68.698l114.001,-19.681Z" style="fill:#fff;fill-rule:nonzero;stroke:#162f54;stroke-width:23.33px;"/><path d="M1141.69,2219.03l367.252,0l0,105.832l-212.033,0.371l-0,59.043l167.844,0.371l-11.883,102.118l-155.961,-0l-0,131.082l218.346,-25.251l31.192,112.144l-386.933,48.645l-11.883,-112.144l43.818,-7.427l-0,-146.307l-46.046,0l10.397,-95.433l36.392,-0.372l-0.372,-43.075l59.786,-21.909l-109.916,0.372l-0,-108.06Z" style="fill:#fff;fill-rule:nonzero;stroke:#162f54;stroke-width:23.33px;"/><path d="M1620.01,2212.76l257.337,-0c27.727,-0 41.714,17.577 41.961,52.73l0.372,155.962c-1.238,17.824 -13.121,29.954 -35.649,36.391c23.518,1.485 35.153,12.625 34.906,33.42l-0.743,169.33c0.495,37.629 -13.492,56.567 -41.961,56.815l-265.506,-0c-28.469,2.723 -41.219,-14.235 -38.248,-50.874l0.743,-89.863l90.235,-0.372l1.114,36.02l162.274,0l0.743,-108.802l-140.366,0.372l0.372,-92.092l139.251,-0.371l0.743,-99.148l-163.389,0l-0.371,29.336l-90.606,0.371l-0,-80.951c-0.248,-32.183 15.348,-48.274 46.788,-48.274Z" style="fill:#fff;fill-rule:nonzero;stroke:#162f54;stroke-width:23.33px;"/></g></svg>